<svg width="26" height="26" viewBox="0 0 26 26" fill="none" xmlns="http://www.w3.org/2000/svg">
<circle cx="13" cy="13" r="13" fill="#433AA9"/>
<path d="M16.3189 12.5H8.1875C8.07147 12.5 7.96019 12.5527 7.87814 12.6465C7.79609 12.7402 7.75 12.8674 7.75 13C7.75 13.1326 7.79609 13.2598 7.87814 13.3536C7.96019 13.4473 8.07147 13.5 8.1875 13.5H16.3189L13.1277 17.146C13.0456 17.2399 12.9994 17.3672 12.9994 17.5C12.9994 17.6328 13.0456 17.7601 13.1277 17.854C13.2099 17.9479 13.3213 18.0006 13.4375 18.0006C13.5537 18.0006 13.6651 17.9479 13.7472 17.854L17.6847 13.354C17.7255 13.3076 17.7578 13.2524 17.7799 13.1916C17.8019 13.1309 17.8133 13.0658 17.8133 13C17.8133 12.9342 17.8019 12.8691 17.7799 12.8084C17.7578 12.7476 17.7255 12.6925 17.6847 12.646L13.7472 8.14601C13.6651 8.05212 13.5537 7.99937 13.4375 7.99937C13.3213 7.99937 13.2099 8.05212 13.1277 8.14601C13.0456 8.23989 12.9994 8.36723 12.9994 8.50001C12.9994 8.63278 13.0456 8.76012 13.1277 8.85401L16.3189 12.5Z" fill="white"/>
</svg>
