<svg width="34" height="34" viewBox="0 0 34 34" fill="none" xmlns="http://www.w3.org/2000/svg">
<rect width="34" height="34" rx="4" fill="#6D61F2"/>
<path d="M12.0409 18.2504L24.1612 18.2504C24.3342 18.2504 24.5001 18.1714 24.6224 18.0308C24.7446 17.8901 24.8134 17.6994 24.8134 17.5005C24.8134 17.3016 24.7446 17.1109 24.6224 16.9702C24.5001 16.8296 24.3342 16.7506 24.1612 16.7506L12.0409 16.7506L16.7975 11.2823C16.9199 11.1415 16.9887 10.9505 16.9887 10.7513C16.9887 10.5522 16.9199 10.3612 16.7975 10.2204C16.675 10.0796 16.5089 10.0005 16.3358 10.0005C16.1626 10.0005 15.9965 10.0796 15.874 10.2204L10.0049 16.9696C9.94421 17.0392 9.89603 17.122 9.86315 17.2131C9.83028 17.3042 9.81336 17.4019 9.81336 17.5005C9.81336 17.5991 9.83028 17.6968 9.86315 17.7879C9.89603 17.879 9.94421 17.9618 10.0049 18.0314L15.874 24.7806C15.9965 24.9214 16.1626 25.0005 16.3358 25.0005C16.5089 25.0005 16.675 24.9214 16.7975 24.7806C16.9199 24.6398 16.9887 24.4488 16.9887 24.2496C16.9887 24.0505 16.9199 23.8595 16.7975 23.7187L12.0409 18.2504Z" fill="white"/>
</svg>
