<svg width="19" height="19" viewBox="0 0 19 19" fill="none" xmlns="http://www.w3.org/2000/svg">
<rect width="19" height="19" rx="9.5" fill="white"/>
<path d="M4.5 4.5H6.375L7.625 3.25H11.375L12.625 4.5H14.5C14.8315 4.5 15.1495 4.6317 15.3839 4.86612C15.6183 5.10054 15.75 5.41848 15.75 5.75V13.25C15.75 13.5815 15.6183 13.8995 15.3839 14.1339C15.1495 14.3683 14.8315 14.5 14.5 14.5H4.5C4.16848 14.5 3.85054 14.3683 3.61612 14.1339C3.3817 13.8995 3.25 13.5815 3.25 13.25V5.75C3.25 5.41848 3.3817 5.10054 3.61612 4.86612C3.85054 4.6317 4.16848 4.5 4.5 4.5ZM9.5 6.375C8.6712 6.375 7.87634 6.70424 7.29029 7.29029C6.70424 7.87634 6.375 8.6712 6.375 9.5C6.375 10.3288 6.70424 11.1237 7.29029 11.7097C7.87634 12.2958 8.6712 12.625 9.5 12.625C10.3288 12.625 11.1237 12.2958 11.7097 11.7097C12.2958 11.1237 12.625 10.3288 12.625 9.5C12.625 8.6712 12.2958 7.87634 11.7097 7.29029C11.1237 6.70424 10.3288 6.375 9.5 6.375ZM9.5 7.625C9.99728 7.625 10.4742 7.82254 10.8258 8.17417C11.1775 8.52581 11.375 9.00272 11.375 9.5C11.375 9.99728 11.1775 10.4742 10.8258 10.8258C10.4742 11.1775 9.99728 11.375 9.5 11.375C9.00272 11.375 8.52581 11.1775 8.17417 10.8258C7.82254 10.4742 7.625 9.99728 7.625 9.5C7.625 9.00272 7.82254 8.52581 8.17417 8.17417C8.52581 7.82254 9.00272 7.625 9.5 7.625Z" fill="#6E80B0"/>
</svg>
