<svg width="13" height="12" viewBox="0 0 13 12" fill="none" xmlns="http://www.w3.org/2000/svg">
<path d="M1.5 1.5H3.375L4.625 0.25H8.375L9.625 1.5H11.5C11.8315 1.5 12.1495 1.6317 12.3839 1.86612C12.6183 2.10054 12.75 2.41848 12.75 2.75V10.25C12.75 10.5815 12.6183 10.8995 12.3839 11.1339C12.1495 11.3683 11.8315 11.5 11.5 11.5H1.5C1.16848 11.5 0.850537 11.3683 0.616116 11.1339C0.381696 10.8995 0.25 10.5815 0.25 10.25V2.75C0.25 2.41848 0.381696 2.10054 0.616116 1.86612C0.850537 1.6317 1.16848 1.5 1.5 1.5ZM6.5 3.375C5.6712 3.375 4.87634 3.70424 4.29029 4.29029C3.70424 4.87634 3.375 5.6712 3.375 6.5C3.375 7.3288 3.70424 8.12366 4.29029 8.70971C4.87634 9.29576 5.6712 9.625 6.5 9.625C7.3288 9.625 8.12366 9.29576 8.70971 8.70971C9.29576 8.12366 9.625 7.3288 9.625 6.5C9.625 5.6712 9.29576 4.87634 8.70971 4.29029C8.12366 3.70424 7.3288 3.375 6.5 3.375ZM6.5 4.625C6.99728 4.625 7.47419 4.82254 7.82583 5.17417C8.17746 5.52581 8.375 6.00272 8.375 6.5C8.375 6.99728 8.17746 7.47419 7.82583 7.82583C7.47419 8.17746 6.99728 8.375 6.5 8.375C6.00272 8.375 5.52581 8.17746 5.17417 7.82583C4.82254 7.47419 4.625 6.99728 4.625 6.5C4.625 6.00272 4.82254 5.52581 5.17417 5.17417C5.52581 4.82254 6.00272 4.625 6.5 4.625Z" fill="#6E80B0"/>
</svg>
