<svg width="324" height="243" viewBox="0 0 324 243" fill="none" xmlns="http://www.w3.org/2000/svg">
<path d="M291.051 162.134H212.976C212.305 162.133 211.662 161.833 211.187 161.299C210.713 160.765 210.446 160.041 210.444 159.286V31.3324C210.446 30.5775 210.713 29.8539 211.187 29.32C211.662 28.7862 212.305 28.4858 212.976 28.4845H291.051C291.723 28.4845 292.367 28.7844 292.843 29.3183C293.318 29.8523 293.586 30.5767 293.587 31.3324V159.286C293.586 160.042 293.318 160.767 292.843 161.301C292.367 161.835 291.723 162.134 291.051 162.134ZM212.976 28.606C212.333 28.606 211.717 28.8932 211.262 29.4045C210.808 29.9158 210.552 30.6093 210.552 31.3324V159.286C210.552 160.01 210.808 160.703 211.262 161.214C211.717 161.726 212.333 162.013 212.976 162.013H291.051C291.694 162.013 292.311 161.726 292.767 161.215C293.222 160.704 293.478 160.01 293.479 159.286V31.3324C293.478 30.6089 293.222 29.9154 292.767 29.4042C292.311 28.8931 291.694 28.606 291.051 28.606H212.976Z" fill="#E0E0E0"/>
<path d="M201.014 162.134H122.93C122.259 162.133 121.616 161.833 121.141 161.299C120.667 160.765 120.4 160.041 120.398 159.286V31.3324C120.4 30.5775 120.667 29.8539 121.141 29.32C121.616 28.7862 122.259 28.4858 122.93 28.4845H201.014C201.685 28.4858 202.328 28.7862 202.803 29.32C203.277 29.8539 203.544 30.5775 203.545 31.3324V159.286C203.544 160.041 203.277 160.765 202.803 161.299C202.328 161.833 201.685 162.133 201.014 162.134ZM122.93 28.606C122.291 28.6136 121.681 28.9041 121.231 29.4145C120.782 29.9248 120.529 30.6139 120.528 31.3324V159.286C120.529 160.009 120.785 160.702 121.239 161.213C121.693 161.724 122.309 162.012 122.952 162.013H201.014C201.656 162.012 202.272 161.724 202.726 161.213C203.181 160.702 203.436 160.009 203.437 159.286V31.3324C203.436 30.6097 203.181 29.917 202.726 29.4059C202.272 28.8949 201.656 28.6073 201.014 28.606H122.93Z" fill="#E0E0E0"/>
<path d="M111.024 162.134H32.9487C32.2769 162.134 31.6325 161.835 31.1571 161.301C30.6817 160.767 30.414 160.042 30.4128 159.286V31.3324C30.414 30.5767 30.6817 29.8523 31.1571 29.3183C31.6325 28.7844 32.2769 28.4845 32.9487 28.4845H111.024C111.695 28.4858 112.338 28.7862 112.813 29.32C113.287 29.8539 113.554 30.5775 113.556 31.3324V159.286C113.554 160.041 113.287 160.765 112.813 161.299C112.338 161.833 111.695 162.133 111.024 162.134ZM32.9487 28.606C32.3055 28.606 31.6886 28.8931 31.2335 29.4042C30.7783 29.9154 30.522 30.6089 30.5208 31.3324V159.286C30.522 160.01 30.7783 160.704 31.2335 161.215C31.6886 161.726 32.3055 162.013 32.9487 162.013H111.024C111.667 162.013 112.283 161.726 112.738 161.214C113.192 160.703 113.448 160.01 113.448 159.286V31.3324C113.448 30.6093 113.192 29.9158 112.738 29.4045C112.283 28.8932 111.667 28.606 111.024 28.606H32.9487Z" fill="#E0E0E0"/>
<path d="M324 191.814H0V191.873H324V191.814Z" fill="#E0E0E0"/>
<path d="M306.444 206.093H282.368V206.297H306.444V206.093Z" fill="#EBEBEB"/>
<path d="M220.177 208.309H213.857V208.513H220.177V208.309Z" fill="#EBEBEB"/>
<path d="M48.95 199.872H17.5565V200.076H48.95V199.872Z" fill="#EBEBEB"/>
<path d="M60.0307 199.872H55.4255V200.076H60.0307V199.872Z" fill="#EBEBEB"/>
<path d="M143.078 203.323H74.9908V203.527H143.078V203.323Z" fill="#EBEBEB"/>
<path d="M132.326 84.4474C131.616 83.9653 130.795 83.7333 129.967 83.7815C129.462 83.0866 129.872 82.0465 130.36 81.3515C130.848 80.6566 131.453 79.845 131.267 78.9701C130.978 77.658 129.341 77.6045 128.161 77.8621C127.729 77.0699 127.729 76.0882 127.522 75.1696C127.315 74.2511 126.619 73.2937 125.846 73.4249C125.073 73.5561 124.597 74.5135 123.837 74.7177C122.951 74.9509 122.183 74.0713 121.491 73.4103C121.404 73.3288 121.313 73.2525 121.219 73.1819C121.366 70.4506 123.677 70.888 125.643 70.5137C127.181 70.227 123.107 65.853 126.213 64.4436C126.816 64.2573 127.344 63.846 127.712 63.2772C127.869 62.8464 127.887 62.3671 127.763 61.923C127.638 61.4788 127.378 61.0981 127.03 60.8472C126.322 60.3687 125.504 60.1385 124.679 60.1862C124.174 59.4913 124.58 58.4464 125.073 57.7562C125.565 57.0661 126.161 56.2496 125.98 55.3748C125.686 54.0626 124.053 54.0092 122.874 54.2668C122.442 53.4746 122.442 52.488 122.234 51.5743C122.027 50.6606 121.336 49.6984 120.558 49.8247C119.781 49.9511 119.31 50.9182 118.545 51.1223C117.659 51.3556 116.895 50.4711 116.199 49.815C115.504 49.1589 114.294 48.7409 113.819 49.6109C113.534 50.126 113.702 50.8453 113.387 51.3605C112.873 52.2353 111.659 51.6958 110.89 51.0689C110.121 50.4419 108.911 49.8685 108.393 50.7433C108.259 51.0298 108.16 51.3356 108.099 51.6521C108.024 51.8763 107.921 52.0874 107.793 52.279C107.641 51.6715 107.594 51.0154 107.456 50.4031C107.244 49.4942 106.553 48.5271 105.775 48.6535C104.998 48.7798 104.527 49.7518 103.766 49.9511C102.881 50.1892 102.116 49.2998 101.421 48.6437C100.725 47.9876 99.5155 47.5697 99.0359 48.4445C98.7508 48.9596 98.9236 49.6789 98.6039 50.1941C98.5427 50.3098 98.4584 50.408 98.3577 50.4808C98.0994 50.4326 97.8375 50.413 97.5758 50.4225C97.066 49.7324 97.4764 48.6972 97.9689 47.9925C98.4614 47.2878 99.0619 46.481 98.8761 45.6111C98.5867 44.294 96.9494 44.2454 95.7657 44.503C95.3337 43.706 95.3337 42.7194 95.1307 41.8106C94.9276 40.9018 94.2278 39.9298 93.4502 40.0658C92.6726 40.2019 92.2017 41.1593 91.4414 41.3635C90.5558 41.5967 89.7911 40.7219 89.0956 40.0561C88.4001 39.3903 87.1905 38.9869 86.711 39.852C86.4302 40.338 86.5987 41.0913 86.279 41.6016C85.7649 42.4715 84.551 41.9321 83.7863 41.3051C83.0217 40.6782 81.8035 40.1047 81.2851 40.9795C81.1473 41.2664 81.0469 41.5741 80.987 41.8932C80.6327 43.0596 79.5052 43.6428 78.6369 44.3864C77.7686 45.13 77.0774 46.622 77.8118 47.5308C78.1747 47.9828 78.8183 48.1529 78.9998 48.7361C79.2201 49.4213 78.5678 50.092 78.058 50.5877C77.7247 51.0038 77.4999 51.5152 77.4085 52.0657C77.317 52.6163 77.3624 53.1845 77.5396 53.7079C77.2805 53.9711 76.9741 54.1683 76.6411 54.2862C75.7771 54.5195 74.9908 53.6398 74.2953 52.9837C73.5998 52.3276 72.3902 51.9097 71.915 52.7796C71.6299 53.2656 71.7983 54.014 71.483 54.5292C70.9689 55.3991 69.755 54.8645 68.9903 54.2376C68.2257 53.6107 67.0075 53.0372 66.4891 53.912C66.3541 54.1986 66.2539 54.5043 66.191 54.8208C65.8367 55.9823 64.7092 56.5655 63.8409 57.314C62.9726 58.0624 62.2814 59.5447 63.0158 60.4584C63.3657 60.9152 63.9662 61.0999 64.1735 61.6248C63.5601 61.3526 62.8559 61.4207 62.5708 61.9358C62.2857 62.451 62.4585 63.1703 62.1388 63.6806C61.6291 64.5554 60.4108 64.0208 59.6505 63.389C58.8902 62.7572 57.6633 62.1886 57.1449 63.0634C57.0115 63.352 56.9127 63.6592 56.8511 63.977C56.4926 65.1434 55.3694 65.7169 54.5011 66.4654C53.6327 67.2138 52.9415 68.7058 53.6759 69.6147C54.0388 70.0618 54.6825 70.2367 54.8639 70.8199C55.0886 71.51 54.4319 72.1807 53.9265 72.6716C53.0625 73.4881 52.9113 75.9424 54.0431 76.6179C54.5227 76.8998 55.2311 77.0456 55.3391 77.5899C55.4471 78.1342 54.9633 78.5279 54.6479 78.9361C54.5752 79.0418 54.5102 79.154 54.4535 79.2715C54.3109 79.5624 54.2206 79.8822 54.1879 80.2124C54.1551 80.5427 54.1806 80.877 54.2629 81.1961C54.3452 81.5153 54.4826 81.813 54.6672 82.0724C54.8519 82.3317 55.0802 82.5475 55.3391 82.7075C55.6113 82.8436 55.9439 82.9699 56.0476 83.2907C56.0877 83.5297 56.0637 83.7767 55.9785 84.0002C55.8714 84.4464 55.8349 84.9103 55.8705 85.3708C55.8618 85.447 55.8692 85.5244 55.8922 85.5968C55.9153 85.6691 55.9532 85.7343 56.003 85.7869C56.0527 85.8396 56.1128 85.8782 56.1784 85.8996C56.244 85.9211 56.3132 85.9247 56.3803 85.9102C58.0175 85.9929 58.8038 85.3416 59.8017 86.9405C59.8902 87.1024 60.008 87.2414 60.1473 87.3488C60.2815 87.4249 60.4291 87.4664 60.5793 87.4703C61.7025 87.5772 62.4283 86.7899 63.4651 86.6392C64.8993 86.4351 65.1931 87.2613 66.4545 87.9271C68.4244 88.9769 69.3835 88.3305 69.7593 86.8142C69.8557 86.3844 69.9136 85.9448 69.9321 85.502C69.9288 85.1716 69.9888 84.8443 70.1081 84.5424C70.2274 84.2405 70.4031 83.971 70.6233 83.7524H70.6535C71.7033 83.8545 72.4161 83.1789 73.3363 82.9699L73.9238 82.897C75.0167 82.897 75.3796 83.626 76.5158 84.2092C77.0393 84.5117 77.6166 84.6778 78.2049 84.6952C78.3691 85.3853 77.7729 86.0026 77.2502 86.4788C76.3862 87.3002 76.2436 89.7545 77.3755 90.4252C77.8463 90.707 78.5635 90.8626 78.6715 91.3972C78.7795 91.9318 78.2956 92.3352 77.9803 92.7385C77.9066 92.8418 77.8415 92.9524 77.7859 93.069C77.4985 93.6584 77.4303 94.3518 77.5963 94.9976C77.7622 95.6434 78.1488 96.1889 78.6715 96.5147C78.9393 96.6605 79.2763 96.7772 79.3756 97.0931C79.4194 97.3347 79.3968 97.5856 79.3108 97.8124C79.1994 98.256 79.1627 98.7192 79.2028 99.178C79.1941 99.2542 79.2015 99.3317 79.2246 99.404C79.2476 99.4764 79.2855 99.5415 79.3353 99.5942C79.385 99.6468 79.4452 99.6854 79.5108 99.7069C79.5763 99.7283 79.6455 99.7319 79.7126 99.7175C81.3499 99.8001 82.1361 99.1489 83.134 100.748C83.2185 100.912 83.3352 101.051 83.4753 101.156C83.6173 101.233 83.7715 101.278 83.9289 101.287C85.0521 101.389 85.7779 100.597 86.8147 100.451C88.2446 100.247 88.5427 101.073 89.7955 101.739C91.774 102.784 92.7331 102.143 93.1046 100.626C93.2046 100.195 93.2639 99.754 93.2817 99.3092C93.4286 96.5828 95.7398 97.0153 97.7097 96.646C97.7785 96.6411 97.8449 96.6156 97.9019 96.572C97.9589 96.5283 98.0044 96.4683 98.0337 96.3981H98.159C99.2822 96.5002 100.008 95.7128 101.04 95.5622C102.479 95.3581 102.768 96.1843 104.03 96.8501C106.004 97.8998 106.963 97.2535 107.335 95.7371C107.435 95.3063 107.494 94.8649 107.512 94.4201C107.641 92.3011 109.067 92.0921 110.618 91.9269C110.642 92.3401 110.759 92.7396 110.959 93.0875C111.158 93.4353 111.433 93.7201 111.758 93.9146C112.035 94.0556 112.367 94.1771 112.471 94.4978C112.509 94.7369 112.485 94.9832 112.402 95.2074C112.293 95.6515 112.256 96.1143 112.294 96.5731C112.291 96.731 112.342 96.8842 112.437 97.0007C112.543 97.0822 112.671 97.123 112.799 97.1174C114.437 97.2 115.223 96.5488 116.225 98.1526C116.312 98.3128 116.429 98.4503 116.566 98.5559C116.7 98.6336 116.848 98.6768 116.998 98.6823C118.122 98.7844 118.847 97.997 119.884 97.8464C121.319 97.6423 121.612 98.4685 122.874 99.1343C124.848 100.184 125.807 99.5377 126.178 98.0213C126.276 97.5917 126.336 97.1521 126.356 96.7091C126.498 93.9778 128.814 94.4152 130.784 94.041C132.322 93.7543 128.239 89.3803 131.35 87.9709C131.951 87.7843 132.478 87.3729 132.844 86.8045C133.003 86.4026 133.038 85.9528 132.944 85.5259C132.851 85.099 132.633 84.7195 132.326 84.4474Z" fill="#E0E0E0"/>
<path d="M75.1117 100.733C74.523 100.329 73.839 100.136 73.1505 100.179C72.7185 99.596 73.0727 98.7212 73.4788 98.1428C73.8849 97.5645 74.3903 96.9084 74.2305 96.1551C73.9972 95.0567 72.6364 95.0227 71.6385 95.2366C71.2713 94.5707 71.2842 93.7445 71.0942 92.9912C70.9041 92.2379 70.3814 91.4506 69.6945 91.5332C69.0076 91.6159 68.6534 92.4469 68.0183 92.6122C67.2839 92.8114 66.6402 92.0776 66.0657 91.5284C65.4911 90.9792 64.4759 90.6341 64.0742 91.3534C63.8409 91.786 63.9834 92.3983 63.7372 92.8114C63.3052 93.555 62.29 93.0933 61.655 92.5684C61.0199 92.0435 60.009 91.5673 59.5684 92.2963C59.4602 92.5373 59.3776 92.7917 59.3222 93.0544C59.0284 94.0264 58.0953 94.5124 57.3652 95.1296C56.6351 95.7469 56.0692 96.9813 56.6826 97.754C56.985 98.1283 57.5164 98.2838 57.6676 98.7601C57.8534 99.3724 57.3133 99.8924 56.8857 100.301C56.1729 100.986 56.0217 103.032 56.985 103.586C57.3825 103.819 57.9657 103.897 58.078 104.388C58.1903 104.879 57.7713 105.17 57.5294 105.511C57.2256 105.953 57.0901 106.513 57.1525 107.068C57.2148 107.622 57.4699 108.127 57.862 108.47C57.9397 108.538 58.022 108.598 58.1082 108.65C58.3329 108.772 58.6094 108.874 58.6914 109.136C58.7345 109.343 58.7163 109.56 58.6396 109.753C58.5469 110.123 58.5162 110.508 58.5489 110.891C58.5488 111.022 58.5919 111.148 58.6698 111.245C58.7575 111.317 58.8641 111.353 58.9722 111.347C60.333 111.415 60.9897 110.861 61.8234 112.203C61.8963 112.337 61.9934 112.453 62.1086 112.543C62.2254 112.609 62.3539 112.643 62.4844 112.645C63.4218 112.733 64.031 112.081 64.8906 111.955C66.0786 111.785 66.3292 112.475 67.3746 113.029C69.0206 113.899 69.8241 113.364 70.1178 112.096C70.1993 111.74 70.2485 111.375 70.2647 111.007C70.3857 108.733 72.3124 109.063 73.954 108.781C75.25 108.538 71.8415 104.893 74.4249 103.722C74.9287 103.571 75.3701 103.227 75.6734 102.75C75.8057 102.393 75.8219 101.995 75.7192 101.627C75.6164 101.258 75.4014 100.941 75.1117 100.733Z" fill="#E0E0E0"/>
<path d="M100.176 88.1604L102.289 80.6226L106.402 74.6739L105.697 74.0129L101.809 78.7709L101.123 71.233H99.9993C99.9993 71.233 100.919 80.19 99.5933 83.4657C99.5933 83.4657 94.7721 97.2681 91.8173 100.252C91.6525 100.428 91.5074 100.625 91.3853 100.84C90.5072 98.2987 89.363 95.8841 87.9768 93.6474C89.1389 90.3134 91.6229 82.9797 92.4696 79.0674C93.1301 76.0259 93.6264 72.9423 93.9557 69.8334L92.9966 69.7119C92.9966 69.7119 90.2664 84.2044 85.7563 90.8043C84.4222 89.4206 82.9087 88.2735 81.2678 87.4023C80.9006 85.3659 80.7451 81.823 81.9417 76.2874L80.9913 76.0153C79.8342 79.2913 79.2688 82.7939 79.3281 86.3185C78.6499 85.9337 77.9961 85.4969 77.3712 85.0111C73.0555 81.5508 69.984 75.33 69.984 75.33L69.12 76.302C69.12 76.302 72.8309 85.4631 77.9976 88.5249C83.1643 91.5867 86.5166 99.042 86.7845 100.996C86.8579 101.555 87.4541 105.982 86.6246 113.739C81.1253 111.1 70.2086 103.834 69.5045 103.163L68.2344 105.107L85.8686 119.298C86.1451 138.214 84.875 157.892 84.9182 162.149H95.1869C94.9363 156.278 92.772 134.189 93.731 111.119C93.8131 110.55 93.8995 109.899 93.9816 109.141C94.7851 102.065 99.5587 92.3886 101.831 89.6379C103.428 87.7382 105.146 85.9725 106.972 84.355L106.35 82.8484L100.176 88.1604Z" fill="#E6E6E6"/>
<path d="M181.44 29.6946C181.439 28.9693 181.182 28.2741 180.726 27.7613C180.27 27.2484 179.652 26.9597 179.008 26.9584C178.772 26.958 178.538 26.9973 178.312 27.0751C178.347 26.7965 178.364 26.5156 178.364 26.2343C178.364 24.7012 177.824 23.2307 176.862 22.1448C175.9 21.0589 174.595 20.4463 173.232 20.4412C172.915 20.4417 172.598 20.4743 172.286 20.5384C171.778 19.5999 171.013 18.8726 170.106 18.4662C169.198 18.0599 168.198 17.9965 167.256 18.2856C166.314 18.5747 165.481 19.2007 164.883 20.069C164.284 20.9374 163.953 22.0011 163.94 23.0996H163.862C162.785 23.1387 161.763 23.6476 161.013 24.5188C160.263 25.39 159.844 26.555 159.844 27.7676C159.844 28.9802 160.263 30.1453 161.013 31.0164C161.763 31.8876 162.785 32.3965 163.862 32.4356H179.094C179.725 32.4116 180.323 32.112 180.761 31.6002C181.199 31.0885 181.443 30.405 181.44 29.6946Z" fill="#F0F0F0"/>
<path d="M220.571 56.862C220.571 56.1892 220.333 55.5439 219.91 55.0681C219.487 54.5924 218.914 54.3251 218.315 54.3251C218.097 54.3214 217.88 54.3575 217.672 54.432C217.703 54.1726 217.719 53.9113 217.719 53.6495C217.712 52.229 217.206 50.8693 216.311 49.8676C215.415 48.8658 214.204 48.3035 212.941 48.3035C212.652 48.3044 212.363 48.3336 212.077 48.391C211.606 47.5229 210.897 46.8503 210.056 46.4744C209.216 46.0985 208.29 46.0395 207.417 46.3063C206.545 46.5731 205.772 47.1513 205.217 47.954C204.661 48.7567 204.352 49.7406 204.336 50.7578H204.267C203.246 50.7578 202.267 51.2141 201.545 52.0261C200.823 52.8382 200.418 53.9396 200.418 55.0881C200.418 56.2366 200.823 57.338 201.545 58.1501C202.267 58.9621 203.246 59.4184 204.267 59.4184H218.398C218.985 59.3956 219.541 59.1154 219.947 58.6378C220.353 58.1601 220.577 57.5229 220.571 56.862Z" fill="#E0E0E0"/>
<path d="M90.9835 21.0535C90.9835 20.6488 90.8406 20.2606 90.5862 19.9745C90.3318 19.6883 89.9868 19.5275 89.627 19.5275C89.4952 19.524 89.3638 19.5453 89.2382 19.5907C89.2562 19.4295 89.2649 19.2671 89.2642 19.1047C89.2607 18.2522 88.9576 17.4358 88.421 16.8339C87.8843 16.232 87.1578 15.8935 86.4 15.8922C86.2218 15.8907 86.0438 15.9086 85.8686 15.9457C85.5853 15.4229 85.1586 15.0179 84.6529 14.7917C84.1471 14.5655 83.5897 14.5304 83.0647 14.6917C82.5396 14.8529 82.0754 15.2018 81.742 15.6857C81.4085 16.1696 81.2239 16.7623 81.216 17.3745H81.1728C80.5766 17.4035 80.0133 17.6904 79.6005 18.1753C79.1877 18.6602 78.9573 19.3056 78.9573 19.977C78.9573 20.6484 79.1877 21.2939 79.6005 21.7788C80.0133 22.2637 80.5766 22.5506 81.1728 22.5796H89.6659C90.0189 22.5682 90.354 22.4024 90.6001 22.1174C90.8461 21.8325 90.9837 21.4508 90.9835 21.0535Z" fill="#F0F0F0"/>
<path d="M288.144 29.5731C288.144 29.2236 288.083 28.8775 287.964 28.5547C287.845 28.2318 287.67 27.9385 287.45 27.6916C287.231 27.4447 286.969 27.249 286.682 27.1157C286.395 26.9824 286.087 26.9141 285.777 26.9147C285.548 26.913 285.321 26.9507 285.103 27.0265C285.137 26.756 285.155 26.4832 285.155 26.21C285.152 25.3834 284.988 24.5675 284.675 23.8197C284.362 23.072 283.906 22.4107 283.341 21.8824C282.776 21.3542 282.115 20.9718 281.404 20.7622C280.693 20.5527 279.95 20.521 279.228 20.6696C278.733 19.7587 277.988 19.0534 277.106 18.6596C276.224 18.2658 275.252 18.2049 274.336 18.4861C273.421 18.7673 272.611 19.3753 272.03 20.2187C271.448 21.0621 271.125 22.0953 271.11 23.1628H271.037C269.967 23.1628 268.94 23.641 268.184 24.4923C267.427 25.3436 267.002 26.4981 267.002 27.702C267.002 28.9059 267.427 30.0605 268.184 30.9117C268.94 31.763 269.967 32.2413 271.037 32.2413H285.846C286.463 32.2222 287.049 31.9324 287.478 31.4338C287.907 30.9352 288.147 30.2674 288.144 29.5731Z" fill="#F0F0F0"/>
<path d="M160.981 61.9018C160.981 61.104 160.699 60.3388 160.197 59.7746C159.696 59.2104 159.016 58.8935 158.306 58.8935C158.048 58.8943 157.79 58.9368 157.542 59.0198C157.582 58.7142 157.601 58.4054 157.598 58.0964C157.597 57.1615 157.413 56.2384 157.059 55.3924C156.705 54.5464 156.19 53.7983 155.551 53.201C154.912 52.6037 154.164 52.1719 153.359 51.9361C152.555 51.7004 151.715 51.6665 150.898 51.8368C150.34 50.8055 149.499 50.0063 148.502 49.5597C147.505 49.1131 146.406 49.0434 145.371 49.361C144.335 49.6787 143.42 50.3665 142.763 51.3206C142.105 52.2748 141.742 53.4436 141.726 54.6507H141.64C140.464 54.7083 139.354 55.2741 138.54 56.2303C137.726 57.1865 137.272 58.4591 137.272 59.7829C137.272 61.1066 137.726 62.3793 138.54 63.3354C139.354 64.2916 140.464 64.8575 141.64 64.915H158.384C159.081 64.8935 159.743 64.5662 160.228 64.0032C160.713 63.4401 160.983 62.686 160.981 61.9018Z" fill="#E0E0E0"/>
<path d="M264.781 161.974H267.568V50.0872C267.568 47.3804 266.612 44.7844 264.911 42.8704C263.209 40.9564 260.902 39.8812 258.496 39.8812H256.033V43.0159H258.496C260.156 43.0184 261.748 43.7617 262.923 45.0827C264.097 46.4037 264.758 48.1947 264.76 50.0629L264.781 161.974Z" fill="#E0E0E0"/>
<path d="M238.218 43.74H258.28L257.822 40.338C257.747 39.7814 257.515 39.2667 257.16 38.8695C256.806 38.4723 256.347 38.2136 255.852 38.1316C254.53 37.9129 252.802 37.6456 251.99 37.6456C249.618 37.5872 243.782 38.2725 240.905 38.6176C240.429 38.6757 239.98 38.8979 239.621 39.2537C239.261 39.6095 239.008 40.0815 238.896 40.6053L238.218 43.74Z" fill="#EBEBEB"/>
<path d="M240.339 46.1263H256.176C256.738 46.1263 257.277 45.8755 257.674 45.4291C258.072 44.9826 258.296 44.3769 258.297 43.7449H238.218C238.218 44.058 238.273 44.3681 238.379 44.6573C238.486 44.9466 238.642 45.2093 238.839 45.4305C239.036 45.6517 239.27 45.827 239.528 45.9464C239.785 46.0658 240.061 46.1269 240.339 46.1263Z" fill="#F5F5F5"/>
<path d="M255.247 61.1874C255.226 61.1865 255.205 61.1786 255.187 61.1649C255.17 61.1511 255.156 61.1319 255.148 61.1096L251.385 51.1272C251.38 51.1122 251.377 51.0961 251.377 51.0799C251.377 51.0637 251.38 51.0476 251.385 51.0326C251.391 51.0177 251.399 51.0041 251.41 50.9928C251.42 50.9815 251.432 50.9727 251.446 50.9668C251.458 50.9597 251.472 50.9557 251.486 50.9551C251.5 50.9545 251.514 50.9573 251.527 50.9632C251.541 50.9692 251.552 50.9783 251.562 50.9898C251.572 51.0013 251.579 51.015 251.584 51.03L255.347 61.0173C255.352 61.032 255.355 61.0478 255.356 61.0638C255.356 61.0798 255.353 61.0957 255.348 61.1106C255.343 61.1255 255.335 61.1391 255.325 61.1506C255.315 61.1621 255.304 61.1713 255.29 61.1777L255.247 61.1874Z" fill="#E0E0E0"/>
<path d="M247.484 67.5248C247.456 67.5248 247.428 67.512 247.408 67.4892C247.388 67.4665 247.376 67.4356 247.376 67.4033C247.376 64.5214 247.458 61.8338 247.536 59.2385C247.614 56.6433 247.692 53.9606 247.692 51.0786C247.692 51.0464 247.703 51.0155 247.723 50.9927C247.743 50.9699 247.771 50.9571 247.8 50.9571C247.828 50.9571 247.856 50.9699 247.876 50.9927C247.896 51.0155 247.908 51.0464 247.908 51.0786C247.908 53.9606 247.825 56.6482 247.752 59.2434C247.679 61.8386 247.592 64.5214 247.592 67.4033C247.592 67.4356 247.581 67.4665 247.561 67.4892C247.54 67.512 247.513 67.5248 247.484 67.5248Z" fill="#E0E0E0"/>
<path d="M239.173 58.8789C239.148 58.8783 239.124 58.8699 239.103 58.8546C239.093 58.8437 239.085 58.8305 239.079 58.8159C239.074 58.8013 239.071 58.7855 239.071 58.7695C239.071 58.7536 239.074 58.7378 239.079 58.7232C239.085 58.7086 239.093 58.6954 239.103 58.6845L244.577 50.544C244.585 50.5312 244.596 50.5205 244.608 50.5123C244.62 50.5042 244.634 50.4989 244.648 50.4966C244.662 50.4944 244.676 50.4952 244.69 50.4992C244.704 50.5032 244.717 50.5101 244.728 50.5197C244.738 50.5306 244.747 50.5438 244.752 50.5584C244.758 50.573 244.761 50.5888 244.761 50.6047C244.761 50.6207 244.758 50.6365 244.752 50.6511C244.747 50.6657 244.738 50.6789 244.728 50.6898L239.237 58.8109C239.232 58.8269 239.223 58.8413 239.212 58.8531C239.201 58.8648 239.187 58.8736 239.173 58.8789Z" fill="#E0E0E0"/>
<path d="M275.443 219.492C275.443 221.14 224.653 222.471 162 222.471C99.347 222.471 48.5568 221.13 48.5568 219.492C48.5568 217.854 99.36 216.513 162 216.513C224.64 216.513 275.443 217.85 275.443 219.492Z" fill="#F5F5F5"/>
<path d="M26.7321 35.8619H69.3403C70.8458 35.8619 72.2896 36.5348 73.3542 37.7324C74.4187 38.93 75.0168 40.5543 75.0168 42.248V144.92C75.0168 147.112 74.243 149.213 72.8658 150.762C71.4885 152.312 69.6205 153.182 67.6728 153.182H28.4126C26.4649 153.182 24.5969 152.312 23.2196 150.762C21.8423 149.213 21.0686 147.112 21.0686 144.92V42.248C21.0686 40.5568 21.6649 38.9347 22.7266 37.7375C23.7884 36.5403 25.2289 35.8658 26.7321 35.8619Z" fill="#263238"/>
<path d="M59.2229 38.4961L58.3589 40.4401H37.2427L35.9899 38.4961H26.0064C25.6292 38.4935 25.2551 38.5746 24.9057 38.7346C24.5563 38.8947 24.2383 39.1306 23.97 39.4289C23.7016 39.7272 23.4881 40.0821 23.3416 40.4732C23.1951 40.8643 23.1186 41.2841 23.1163 41.7085V145.227C23.1232 146.522 23.5871 147.762 24.406 148.673C25.2249 149.585 26.332 150.093 27.4839 150.087H68.5887C69.1592 150.09 69.7248 149.968 70.2531 149.725C70.7814 149.483 71.2621 149.126 71.6678 148.675C72.0734 148.224 72.396 147.687 72.617 147.095C72.8381 146.503 72.9533 145.868 72.9562 145.227V41.7085C72.9539 41.2841 72.8774 40.8643 72.7309 40.4732C72.5844 40.0821 72.3709 39.7272 72.1025 39.4289C71.8342 39.1306 71.5162 38.8947 71.1668 38.7346C70.8174 38.5746 70.4434 38.4935 70.0661 38.4961H59.2229Z" fill="#6D61F2"/>
<path d="M47.1441 39.2883C47.6236 39.2883 48.0124 38.8509 48.0124 38.3114C48.0124 37.7719 47.6236 37.3345 47.1441 37.3345C46.6645 37.3345 46.2758 37.7719 46.2758 38.3114C46.2758 38.8509 46.6645 39.2883 47.1441 39.2883Z" fill="white"/>
<path d="M49.2955 38.3114C49.2955 38.4075 49.2702 38.5015 49.2227 38.5814C49.1752 38.6613 49.1078 38.7236 49.0288 38.7604C48.9499 38.7972 48.863 38.8068 48.7792 38.788C48.6954 38.7693 48.6185 38.723 48.558 38.655C48.4976 38.5871 48.4565 38.5005 48.4398 38.4062C48.4232 38.3119 48.4317 38.2142 48.4644 38.1254C48.4971 38.0366 48.5525 37.9607 48.6235 37.9073C48.6946 37.8539 48.7781 37.8254 48.8635 37.8254C48.9781 37.8254 49.088 37.8766 49.169 37.9677C49.25 38.0589 49.2955 38.1825 49.2955 38.3114Z" fill="white"/>
<path d="M70.0661 38.4961H59.2229L58.3589 40.4401H37.2427L35.9899 38.4961H26.0064C25.6292 38.4935 25.2551 38.5746 24.9057 38.7346C24.5563 38.8947 24.2383 39.1306 23.97 39.4289C23.7016 39.7272 23.4881 40.0821 23.3416 40.4732C23.1951 40.8643 23.1186 41.2841 23.1163 41.7085V68.1907H72.9562V41.7085C72.9539 41.2841 72.8774 40.8643 72.7309 40.4732C72.5844 40.0821 72.3709 39.7272 72.1025 39.4289C71.8342 39.1306 71.5162 38.8947 71.1668 38.7346C70.8174 38.5746 70.4434 38.4935 70.0661 38.4961Z" fill="#6D61F2"/>
<path opacity="0.6" d="M66.4977 40.5324H66.1089V41.519H66.4977V40.5324Z" fill="white"/>
<path opacity="0.6" d="M69.8759 40.1728H66.7655V41.8835H69.8759V40.1728Z" fill="white"/>
<path opacity="0.4" d="M72.939 63.7583H23.1726V146.66H72.939V63.7583Z" fill="white"/>
<path opacity="0.2" d="M72.9388 76.511V72.3605L61.2316 84.5105L48.8678 79.879L56.6136 63.7632H53.4988L50.1983 70.6158L26.244 63.7535H23.1811V65.9842L32.1969 68.5552L24.8788 83.0525L42.0422 87.5918L40.0032 91.854L23.1552 87.1058V90.2113L38.6683 94.5853L33.6657 105.015L25.7342 102.507L23.1724 104.325V107.926L26.1964 105.783L32.3697 107.727L23.1724 126.846V133.334L29.1816 120.834L37.355 123.444V134.85L54 146.66H59.4432L40.1198 132.955V124.314L72.9518 134.778V131.648L63.1583 128.513L66.1521 110.604L72.9691 112.548V109.447L54.5616 104.208L62.722 87.1301L72.9388 76.511ZM29.0347 81.0551L34.9617 69.3571L48.898 73.352L43.3684 84.8507L29.0347 81.0551ZM63.4392 109.836L60.4799 127.672L30.4862 118.098L38.8843 100.602L42.0984 104.49L52.1985 106.633L63.4392 109.836ZM51.7752 103.489L43.5672 101.734L40.2753 97.7735L47.5891 82.552L59.616 87.0669L51.7752 103.489Z" fill="black"/>
<path opacity="0.6" d="M64.2988 59.1268H35.4239C34.9316 59.1268 34.4593 58.9074 34.1104 58.5167C33.7615 58.126 33.5643 57.5957 33.562 57.0418C33.5632 56.488 33.7592 55.9572 34.1073 55.5655C34.4555 55.1739 34.9273 54.9533 35.4196 54.952H64.2988C64.5427 54.9533 64.7841 55.0086 65.009 55.1148C65.234 55.221 65.4381 55.376 65.6098 55.571C65.7815 55.7659 65.9174 55.997 66.0097 56.2511C66.102 56.5051 66.1489 56.7771 66.1478 57.0515C66.1444 57.6016 65.9483 58.1279 65.6022 58.5164C65.2561 58.9049 64.7877 59.1242 64.2988 59.1268Z" fill="white"/>
<path d="M31.307 55.5595C31.175 55.4105 31.0181 55.2923 30.8454 55.2116C30.6726 55.131 30.4874 55.0894 30.3004 55.0894C30.1134 55.0894 29.9282 55.131 29.7555 55.2116C29.5828 55.2923 29.4259 55.4105 29.2939 55.5595C29.0327 55.8593 28.8864 56.2624 28.8864 56.6822C28.8864 57.102 29.0327 57.5051 29.2939 57.8048L30.2918 58.9275L31.2897 57.8048C31.5532 57.5076 31.7027 57.106 31.7059 56.6862C31.7091 56.2664 31.5659 55.8619 31.307 55.5595ZM30.7497 57.1973C30.6609 57.2972 30.5477 57.3651 30.4246 57.3927C30.3014 57.4202 30.1737 57.406 30.0577 57.3519C29.9417 57.2978 29.8426 57.2062 29.7728 57.0887C29.7031 56.9713 29.6659 56.8332 29.6659 56.6919C29.6659 56.5506 29.7031 56.4125 29.7728 56.2951C29.8426 56.1776 29.9417 56.086 30.0577 56.0319C30.1737 55.9778 30.3014 55.9637 30.4246 55.9912C30.5477 56.0187 30.6609 56.0866 30.7497 56.1865C30.8093 56.2525 30.8566 56.3312 30.8889 56.4179C30.9211 56.5047 30.9378 56.5978 30.9378 56.6919C30.9378 56.786 30.9211 56.8791 30.8889 56.9659C30.8566 57.0526 30.8093 57.1313 30.7497 57.1973Z" fill="white"/>
<path d="M61.5038 127.055C61.1489 127.069 60.8055 127.201 60.5165 127.433C60.2274 127.665 60.0056 127.988 59.8784 128.361C59.7513 128.734 59.7246 129.141 59.8016 129.531C59.8786 129.921 60.0559 130.277 60.3114 130.555C60.5669 130.833 60.8894 131.019 61.2387 131.092C61.5879 131.165 61.9485 131.121 62.2755 130.965C62.6024 130.809 62.8814 130.548 63.0776 130.215C63.2738 129.882 63.3785 129.491 63.3787 129.091C63.3748 128.819 63.3231 128.55 63.2267 128.3C63.1303 128.051 62.991 127.825 62.8168 127.635C62.6427 127.446 62.4371 127.298 62.2117 127.198C61.9864 127.098 61.7459 127.05 61.5038 127.055ZM61.5038 130.413C61.2722 130.405 61.048 130.319 60.8591 130.168C60.6702 130.017 60.5252 129.807 60.442 129.563C60.3588 129.32 60.3411 129.055 60.3913 128.8C60.4415 128.545 60.5572 128.313 60.724 128.132C60.8908 127.951 61.1013 127.83 61.3292 127.782C61.5571 127.735 61.7924 127.765 62.0055 127.867C62.2187 127.969 62.4003 128.14 62.5278 128.358C62.6552 128.575 62.7228 128.831 62.7221 129.091C62.7193 129.268 62.6855 129.443 62.6228 129.605C62.56 129.767 62.4695 129.913 62.3564 130.036C62.2432 130.159 62.1097 130.255 61.9634 130.32C61.8172 130.385 61.661 130.416 61.5038 130.413Z" fill="white"/>
<path d="M62.2469 129.091C62.252 129.258 62.2129 129.422 62.1344 129.563C62.056 129.705 61.9418 129.816 61.8066 129.884C61.6713 129.952 61.5212 129.973 61.3754 129.944C61.2296 129.915 61.0948 129.838 60.9883 129.722C60.8817 129.606 60.8084 129.457 60.7775 129.295C60.7467 129.132 60.7598 128.962 60.8152 128.808C60.8706 128.653 60.9658 128.521 61.0884 128.428C61.2111 128.335 61.3558 128.285 61.5038 128.285C61.6971 128.282 61.8836 128.365 62.0227 128.516C62.1618 128.667 62.2423 128.874 62.2469 129.091Z" fill="white"/>
<path opacity="0.4" d="M55.08 70.9025L51.1272 79.1888L61.236 82.5568L66.8174 76.302C62.8136 74.7646 58.8942 72.9617 55.08 70.9025Z" fill="white"/>
<path opacity="0.4" d="M72.9388 63.7535V69.4105L67.9924 74.9898C64.666 73.7019 61.3828 72.3119 58.186 70.6984C57.3781 70.295 56.5746 69.8722 55.7841 69.4348L58.4754 63.7535H72.9388Z" fill="white"/>
<path opacity="0.4" d="M48.0556 84.389L57.443 87.8251L52.7472 98.4879L43.2216 95.1637L48.0556 84.389Z" fill="white"/>
<path opacity="0.4" d="M57.4559 102.745C57.538 102.459 62.0697 92.2768 62.0697 92.2768L68.783 94.5464L69.9667 106.06L57.4559 102.745Z" fill="white"/>
<path opacity="0.4" d="M63.7026 90.2356L70.7356 92.2768L71.3015 83.6066L64.9511 87.3779L63.7026 90.2356Z" fill="white"/>
<path opacity="0.4" d="M43.701 118.535C43.8436 118.409 46.9626 107.975 46.9626 107.975L61.5038 110.755L59.0802 124.683L43.701 118.535Z" fill="white"/>
<path opacity="0.4" d="M35.8775 112.572L40.2623 114.142L38.0678 118.516C38.0678 118.516 33.4497 117.364 33.4497 117.029C33.4497 116.693 35.8775 112.572 35.8775 112.572Z" fill="white"/>
<path opacity="0.4" d="M36.1196 125.782C36.0116 126.068 33.3462 146.68 33.3462 146.68H23.1726L23.475 139.667L29.6353 124.26L36.1196 125.782Z" fill="white"/>
<path opacity="0.4" d="M72.9389 135.949V144.643L61.8149 145.129L52.1467 137.31C52.1467 137.31 53.8099 132.109 54.3067 130.457L72.9389 135.949Z" fill="white"/>
<path opacity="0.4" d="M52.8205 129.99L44.47 127.522L43.282 131.978L50.842 136.415C50.842 136.415 52.8205 130.413 52.8205 129.99Z" fill="white"/>
<path opacity="0.4" d="M72.9388 118.108V127.604L65.2535 125.782L66.8174 116.796L72.9388 118.108Z" fill="white"/>
<path opacity="0.4" d="M26.9568 99.907L29.3933 93.8612L36.18 96.0336L33.4497 102.352L26.9568 99.907Z" fill="white"/>
<path opacity="0.4" d="M33.1387 78.8729L36.4867 72.2925L45.563 75.1502L42.5174 82.1777L33.1387 78.8729Z" fill="white"/>
<path opacity="0.4" d="M51.2783 63.7535C50.4143 65.6003 49.3516 67.9477 49.1788 68.0983C49.006 68.249 37.7826 65.158 32.8319 63.7535H51.2783Z" fill="white"/>
<path opacity="0.4" d="M29.3891 70.3631L23.1726 84.4668V68.6086L29.3891 70.3631Z" fill="white"/>
<path d="M62.2468 126.642H62.1777C62.079 126.623 61.9907 126.562 61.9312 126.471C61.8716 126.38 61.8454 126.268 61.858 126.156L64.558 109.224C57.5289 106.897 50.388 105.021 43.1697 103.605C43.0843 103.59 43.0056 103.544 42.9451 103.474L38.3874 98.1283C38.3331 98.0648 38.298 97.9836 38.2871 97.8963C38.2763 97.809 38.2902 97.7201 38.327 97.6423L43.6319 86.5663L26.9092 82.4596C26.8592 82.4487 26.8116 82.4265 26.7693 82.3945C26.727 82.3624 26.6909 82.3212 26.6631 82.2731C26.6353 82.225 26.6164 82.1712 26.6074 82.1147C26.5985 82.0583 26.5998 82.0004 26.6111 81.9445C26.6196 81.9054 26.6326 81.8678 26.65 81.8327L32.266 70.6838C32.3241 70.5875 32.411 70.5179 32.5109 70.4875C32.6108 70.4572 32.717 70.4682 32.8103 70.5186C32.8556 70.5455 32.8956 70.5824 32.9279 70.6271C32.9602 70.6718 32.9841 70.7234 32.9982 70.7788C33.0123 70.8342 33.0163 70.8922 33.01 70.9494C33.0037 71.0065 32.9872 71.0617 32.9615 71.1115L27.5572 81.7646L44.2713 85.8713C44.3211 85.8829 44.3683 85.9054 44.4103 85.9376C44.4522 85.9698 44.4881 86.0111 44.5158 86.059C44.5435 86.1069 44.5625 86.1605 44.5717 86.2167C44.5809 86.2729 44.5801 86.3306 44.5694 86.3865C44.5637 86.4227 44.5519 86.4573 44.5348 86.4886L39.1391 97.7589L43.4159 102.779C50.7396 104.22 57.9833 106.135 65.111 108.514C65.2019 108.543 65.2801 108.608 65.3304 108.698C65.3807 108.788 65.3995 108.896 65.3831 109L62.6399 126.282C62.6226 126.385 62.5737 126.477 62.5017 126.543C62.4298 126.609 62.3395 126.644 62.2468 126.642Z" fill="white"/>
<path d="M34.3915 65.124C33.9877 64.6787 33.4448 64.4294 32.8795 64.4294C32.3141 64.4294 31.7712 64.6787 31.3675 65.124C30.9717 65.5782 30.75 66.1889 30.75 66.825C30.75 67.461 30.9717 68.0717 31.3675 68.526L32.8795 70.227L34.3915 68.526C34.7872 68.0717 35.0089 67.461 35.0089 66.825C35.0089 66.1889 34.7872 65.5782 34.3915 65.124ZM33.5275 67.5929C33.3928 67.7447 33.2212 67.8482 33.0342 67.8902C32.8473 67.9322 32.6535 67.9109 32.4773 67.8289C32.3012 67.747 32.1506 67.6081 32.0446 67.4298C31.9387 67.2515 31.8821 67.0419 31.8821 66.8274C31.8821 66.613 31.9387 66.4033 32.0446 66.225C32.1506 66.0468 32.3012 65.9078 32.4773 65.8259C32.6535 65.7439 32.8473 65.7226 33.0342 65.7647C33.2212 65.8067 33.3928 65.9101 33.5275 66.062C33.6198 66.1615 33.6935 66.2808 33.7444 66.4128C33.7954 66.5447 33.8224 66.6868 33.824 66.8306C33.8256 66.9745 33.8018 67.1173 33.7538 67.2506C33.7059 67.384 33.6348 67.5053 33.5447 67.6074L33.5275 67.5929Z" fill="white"/>
<path d="M58.4754 65.9259H40.3271C39.4277 65.9259 38.6985 66.7462 38.6985 67.7581V74.7031C38.6985 75.715 39.4277 76.5353 40.3271 76.5353H58.4754C59.3749 76.5353 60.1041 75.715 60.1041 74.7031V67.7581C60.1041 66.7462 59.3749 65.9259 58.4754 65.9259Z" fill="white"/>
<path d="M43.714 71.0629C44.4322 71.0629 45.0143 70.408 45.0143 69.6001C45.0143 68.7922 44.4322 68.1372 43.714 68.1372C42.9959 68.1372 42.4137 68.7922 42.4137 69.6001C42.4137 70.408 42.9959 71.0629 43.714 71.0629Z" fill="#6D61F2"/>
<path d="M43.714 71.233C43.1636 71.2343 42.6362 71.4812 42.2475 71.9194C41.8587 72.3577 41.6404 72.9515 41.6404 73.5707H45.7919C45.7919 73.2637 45.7382 72.9597 45.6337 72.6761C45.5293 72.3925 45.3762 72.1348 45.1833 71.9177C44.9903 71.7006 44.7613 71.5285 44.5092 71.411C44.2571 71.2935 43.9869 71.233 43.714 71.233Z" fill="#6D61F2"/>
<path d="M49.5244 71.0629C49.7807 71.0629 50.0313 70.9774 50.2444 70.8172C50.4575 70.657 50.6236 70.4293 50.7217 70.1629C50.8198 69.8965 50.8455 69.6033 50.7955 69.3205C50.7455 69.0376 50.6221 68.7779 50.4408 68.5739C50.2596 68.37 50.0286 68.2312 49.7772 68.1749C49.5258 68.1187 49.2652 68.1475 49.0284 68.2579C48.7916 68.3682 48.5892 68.5551 48.4468 68.7949C48.3044 69.0347 48.2284 69.3165 48.2284 69.6049C48.2284 69.9916 48.3649 70.3624 48.608 70.6359C48.851 70.9093 49.1807 71.0629 49.5244 71.0629Z" fill="#6D61F2"/>
<path d="M49.5245 71.233C48.9737 71.2343 48.4458 71.481 48.0564 71.9191C47.667 72.3573 47.4477 72.9511 47.4465 73.5707H51.6024C51.6024 72.9507 51.3834 72.3561 50.9938 71.9177C50.6041 71.4793 50.0756 71.233 49.5245 71.233Z" fill="#6D61F2"/>
<path d="M55.3348 71.1844C55.0563 71.1844 54.784 71.0915 54.5524 70.9174C54.3208 70.7433 54.1403 70.4959 54.0337 70.2064C53.9271 69.9169 53.8992 69.5983 53.9536 69.291C54.0079 68.9836 54.142 68.7013 54.339 68.4797C54.536 68.2582 54.7869 68.1073 55.0601 68.0461C55.3333 67.985 55.6164 68.0164 55.8738 68.1363C56.1311 68.2562 56.3511 68.4593 56.5058 68.7198C56.6606 68.9804 56.7432 69.2867 56.7432 69.6001C56.7432 70.0203 56.5948 70.4232 56.3307 70.7204C56.0666 71.0175 55.7083 71.1844 55.3348 71.1844ZM55.3348 68.2684C55.099 68.2684 54.8685 68.3471 54.6724 68.4945C54.4763 68.6419 54.3235 68.8514 54.2333 69.0965C54.143 69.3416 54.1194 69.6113 54.1654 69.8715C54.2114 70.1317 54.325 70.3707 54.4917 70.5583C54.6585 70.7458 54.8709 70.8736 55.1022 70.9254C55.3335 70.9771 55.5732 70.9505 55.7911 70.849C56.009 70.7475 56.1952 70.5756 56.3262 70.355C56.4572 70.1344 56.5272 69.8751 56.5272 69.6098C56.5277 69.433 56.4973 69.2578 56.4377 69.0942C56.3781 68.9306 56.2904 68.7819 56.1797 68.6564C56.069 68.531 55.9374 68.4313 55.7924 68.363C55.6475 68.2948 55.492 68.2593 55.3348 68.2587V68.2684Z" fill="#6D61F2"/>
<path d="M57.5208 73.6922H53.136V73.5707C53.136 72.9185 53.3663 72.293 53.7762 71.8318C54.1862 71.3706 54.7422 71.1115 55.3219 71.1115C55.9016 71.1115 56.4576 71.3706 56.8676 71.8318C57.2775 72.293 57.5078 72.9185 57.5078 73.5707L57.5208 73.6922ZM53.3693 73.4492H57.3005C57.2674 72.888 57.0459 72.362 56.6809 71.9778C56.3159 71.5935 55.8347 71.3797 55.3349 71.3797C54.835 71.3797 54.3538 71.5935 53.9888 71.9778C53.6238 72.362 53.4024 72.888 53.3693 73.4492Z" fill="#6D61F2"/>
<path d="M39.6921 65.9259H35.9683C35.9683 65.9259 39.0873 68.7447 39.1607 68.7447C39.2342 68.7447 39.6921 65.9259 39.6921 65.9259Z" fill="white"/>
<path opacity="0.4" d="M36.1194 146.66C35.7998 146.66 38.6423 139.793 38.625 139.662C38.5473 139.113 49.127 146.66 49.127 146.66H36.1194Z" fill="white"/>
<path d="M160.989 50.8113C164.044 47.4782 168.141 45.6304 172.397 45.6668C176.652 45.7033 180.724 47.621 183.734 51.0059C186.743 54.3909 188.449 58.9715 188.482 63.7589C188.515 68.5463 186.873 73.1563 183.911 76.5936L174.757 86.8968C174.146 87.5835 173.318 87.9693 172.454 87.9693C171.591 87.9693 170.763 87.5835 170.152 86.8968L160.989 76.5887C157.952 73.1695 156.246 68.5336 156.246 63.7C156.246 58.8664 157.952 54.2306 160.989 50.8113ZM172.45 72.1953C173.938 72.1953 175.393 71.6988 176.631 70.7685C177.869 69.8382 178.833 68.516 179.403 66.969C179.972 65.422 180.121 63.7198 179.831 62.0775C179.541 60.4353 178.824 58.9267 177.771 57.7427C176.719 56.5587 175.378 55.7524 173.918 55.4257C172.458 55.0991 170.945 55.2667 169.57 55.9075C168.195 56.5483 167.02 57.6334 166.193 59.0257C165.366 60.4179 164.925 62.0547 164.925 63.7292C164.929 65.9716 165.724 68.1205 167.135 69.7048C168.545 71.2891 170.457 72.1794 172.45 72.1807V72.1953Z" fill="#6D61F2"/>
<path d="M257.718 85.6429H257.286V67.9865H188.266V67.5005H257.718V85.6429Z" fill="#6D61F2"/>
<path d="M257.502 86.5858C258.454 86.5858 259.226 85.7176 259.226 84.6466C259.226 83.5757 258.454 82.7075 257.502 82.7075C256.55 82.7075 255.779 83.5757 255.779 84.6466C255.779 85.7176 256.55 86.5858 257.502 86.5858Z" fill="#6D61F2"/>
<path d="M307.056 75.0872C311.215 72.4057 312.654 66.4394 310.27 61.761C307.886 57.0826 302.583 55.4638 298.425 58.1453C294.266 60.8268 292.827 66.7932 295.211 71.4716C297.594 76.1499 302.898 77.7687 307.056 75.0872Z" fill="#6D61F2"/>
<path d="M296.931 70.6644L294.71 70.3825L293.799 73.386L296.564 73.2256L296.931 70.6644Z" fill="#6D61F2"/>
<path d="M313.295 66.2612C313.267 66.2588 313.241 66.2442 313.223 66.2206C313.204 66.1971 313.194 66.1663 313.196 66.1349C313.255 64.565 312.971 63.0027 312.368 61.5851C311.766 60.1675 310.863 58.9379 309.74 58.0041C309.726 57.9961 309.714 57.9848 309.704 57.9711C309.694 57.9573 309.688 57.9413 309.684 57.9243C309.68 57.9072 309.68 57.8895 309.683 57.8723C309.686 57.8551 309.692 57.8388 309.701 57.8246C309.711 57.8104 309.722 57.7986 309.736 57.79C309.75 57.7814 309.765 57.7763 309.78 57.7748C309.796 57.7734 309.811 57.7758 309.826 57.7818C309.841 57.7878 309.854 57.7973 309.865 57.8097C311.019 58.7659 311.947 60.0266 312.566 61.4809C313.185 62.9352 313.477 64.5384 313.416 66.1495C313.415 66.1659 313.411 66.1819 313.404 66.1965C313.397 66.2112 313.388 66.2241 313.377 66.2345C313.366 66.245 313.352 66.2528 313.338 66.2573C313.324 66.2619 313.31 66.2633 313.295 66.2612Z" fill="#6D61F2"/>
<path d="M312.941 69.1286C312.927 69.1338 312.912 69.1338 312.898 69.1286C312.884 69.1234 312.872 69.115 312.862 69.1041C312.852 69.0931 312.844 69.0799 312.838 69.0651C312.833 69.0504 312.83 69.0346 312.831 69.0187C312.832 69.0029 312.835 68.9873 312.841 68.9731C312.999 68.5382 313.077 68.0721 313.07 67.6026C313.069 67.5867 313.071 67.5707 313.076 67.5556C313.08 67.5406 313.088 67.5268 313.098 67.5153C313.107 67.5038 313.119 67.4948 313.133 67.4889C313.146 67.483 313.16 67.4803 313.174 67.4811C313.188 67.4797 313.203 67.4818 313.216 67.487C313.23 67.4923 313.242 67.5006 313.253 67.5116C313.264 67.5226 313.272 67.5359 313.278 67.5507C313.283 67.5655 313.286 67.5816 313.286 67.5977C313.293 68.0974 313.209 68.5934 313.04 69.0557C313.032 69.0775 313.018 69.0959 313 69.1089C312.982 69.1218 312.962 69.1287 312.941 69.1286Z" fill="#6D61F2"/>
<path d="M302.953 66.65C303.295 66.65 303.629 66.536 303.913 66.3224C304.197 66.1088 304.419 65.8052 304.549 65.45C304.68 65.0947 304.714 64.7039 304.648 64.3268C304.581 63.9497 304.416 63.6033 304.175 63.3314C303.933 63.0595 303.625 62.8744 303.29 62.7994C302.955 62.7244 302.607 62.7629 302.292 62.91C301.976 63.0571 301.706 63.3063 301.516 63.626C301.326 63.9457 301.225 64.3215 301.225 64.706C301.225 65.2216 301.407 65.7161 301.731 66.0806C302.055 66.4452 302.495 66.65 302.953 66.65Z" fill="white"/>
<path d="M302.953 66.8784C302.588 66.8784 302.226 66.9594 301.889 67.1168C301.552 67.2741 301.245 67.5048 300.987 67.7955C300.729 68.0861 300.525 68.4312 300.385 68.8109C300.246 69.1906 300.175 69.5975 300.175 70.0083H305.735C305.735 69.1782 305.442 68.3821 304.92 67.7952C304.398 67.2082 303.691 66.8784 302.953 66.8784Z" fill="white"/>
<path d="M128.323 88.2417C130.092 83.2301 127.915 77.5539 123.46 75.5636C119.005 73.5733 113.96 76.0225 112.19 81.0341C110.421 86.0457 112.598 91.7219 117.053 93.7122C121.508 95.7025 126.553 93.2533 128.323 88.2417Z" fill="#6D61F2"/>
<path d="M123.669 91.2659L123.068 93.6911L125.557 95.1782L125.859 92.0824L123.669 91.2659Z" fill="#6D61F2"/>
<path d="M130.818 84.3016C130.789 84.2991 130.762 84.284 130.743 84.2595C130.724 84.235 130.713 84.2031 130.715 84.1703C130.775 82.601 130.491 81.0391 129.888 79.6221C129.285 78.2051 128.382 76.9765 127.259 76.0444C127.235 76.0257 127.219 75.9973 127.214 75.9654C127.209 75.9335 127.216 75.9007 127.233 75.8743C127.249 75.8479 127.275 75.83 127.303 75.8245C127.331 75.819 127.36 75.8265 127.384 75.8452C128.538 76.801 129.466 78.0617 130.085 79.5161C130.705 80.9704 130.996 82.5738 130.935 84.1849C130.933 84.2176 130.919 84.248 130.898 84.2697C130.876 84.2915 130.847 84.3029 130.818 84.3016Z" fill="#6D61F2"/>
<path d="M130.464 87.169H130.421C130.395 87.1552 130.375 87.131 130.365 87.1012C130.354 87.0715 130.354 87.0383 130.365 87.0086C130.524 86.5759 130.602 86.111 130.594 85.6429C130.594 85.6107 130.605 85.5798 130.625 85.557C130.645 85.5342 130.673 85.5214 130.702 85.5214C130.73 85.5214 130.758 85.5342 130.778 85.557C130.798 85.5798 130.81 85.6107 130.81 85.6429C130.816 86.1427 130.733 86.6388 130.563 87.1009C130.554 87.1217 130.54 87.1392 130.523 87.1513C130.505 87.1633 130.485 87.1695 130.464 87.169Z" fill="#6D61F2"/>
<path d="M120.26 84.9285C121.222 84.9285 122.001 84.0516 122.001 82.9699C122.001 81.8882 121.222 81.0114 120.26 81.0114C119.299 81.0114 118.519 81.8882 118.519 82.9699C118.519 84.0516 119.299 84.9285 120.26 84.9285Z" fill="white"/>
<path d="M120.26 85.1569C119.523 85.1569 118.817 85.4862 118.296 86.0722C117.775 86.6583 117.482 87.4531 117.482 88.2819H123.042C123.042 87.8711 122.97 87.4644 122.83 87.0849C122.691 86.7054 122.486 86.3607 122.227 86.0705C121.969 85.7802 121.662 85.5502 121.325 85.3934C120.987 85.2366 120.625 85.1563 120.26 85.1569Z" fill="white"/>
<path d="M304.906 191.173L309.157 187.406C311.869 190.881 314.06 194.342 315.71 196.407L314.686 199.114L311.904 198.492C309.701 195.9 307.364 193.456 304.906 191.173Z" fill="#B97964"/>
<path d="M308.979 196.164L310.634 194.978C312.327 195.95 312.664 195.173 312.872 193.462C313.304 193.054 313.796 193.584 313.93 193.72L316.915 196.757C317.036 196.878 317.11 197.049 317.12 197.231C317.129 197.413 317.074 197.592 316.967 197.729C316.926 197.779 316.88 197.823 316.829 197.86L312.859 200.718L307.295 204.703C305.778 205.792 304.491 204.3 305.027 203.692C307.442 200.98 308.915 198.628 309.252 197.083C309.312 196.791 309.087 196.786 308.979 196.164Z" fill="#6D61F2"/>
<path d="M310.176 197.938C310.16 197.942 310.144 197.942 310.128 197.938C309.917 197.829 309.687 197.772 309.455 197.772C309.222 197.772 308.992 197.829 308.781 197.938C308.768 197.945 308.753 197.948 308.739 197.948C308.725 197.949 308.711 197.946 308.698 197.94C308.684 197.934 308.672 197.925 308.662 197.914C308.652 197.903 308.644 197.89 308.638 197.875C308.632 197.861 308.628 197.845 308.627 197.829C308.626 197.813 308.628 197.797 308.633 197.782C308.638 197.767 308.645 197.753 308.655 197.742C308.665 197.73 308.677 197.721 308.69 197.715C308.931 197.591 309.192 197.527 309.457 197.527C309.721 197.527 309.983 197.591 310.223 197.715C310.249 197.728 310.269 197.753 310.279 197.783C310.288 197.813 310.287 197.846 310.275 197.875C310.265 197.894 310.25 197.909 310.233 197.921C310.215 197.932 310.196 197.938 310.176 197.938Z" fill="#263238"/>
<path d="M309.787 199.104H309.74C309.528 198.995 309.298 198.939 309.066 198.939C308.833 198.939 308.603 198.995 308.392 199.104C308.379 199.112 308.365 199.116 308.351 199.117C308.337 199.118 308.323 199.116 308.309 199.11C308.296 199.105 308.284 199.096 308.273 199.085C308.263 199.074 308.255 199.061 308.249 199.046C308.243 199.032 308.239 199.016 308.238 199C308.237 198.984 308.239 198.968 308.244 198.953C308.249 198.938 308.257 198.924 308.266 198.913C308.276 198.901 308.288 198.892 308.301 198.886C308.541 198.761 308.803 198.696 309.068 198.696C309.333 198.696 309.594 198.761 309.835 198.886C309.86 198.899 309.88 198.924 309.89 198.954C309.9 198.984 309.898 199.017 309.887 199.046C309.876 199.064 309.861 199.079 309.843 199.09C309.826 199.1 309.807 199.105 309.787 199.104Z" fill="#263238"/>
<path d="M309.157 200.305C309.142 200.309 309.127 200.309 309.113 200.305C308.901 200.197 308.67 200.141 308.437 200.141C308.204 200.141 307.974 200.197 307.761 200.305C307.748 200.312 307.734 200.315 307.72 200.316C307.705 200.317 307.691 200.314 307.678 200.308C307.664 200.303 307.652 200.294 307.641 200.283C307.631 200.272 307.622 200.259 307.616 200.244C307.61 200.229 307.607 200.214 307.607 200.197C307.606 200.181 307.608 200.165 307.613 200.15C307.618 200.135 307.626 200.121 307.636 200.109C307.646 200.098 307.657 200.088 307.67 200.081C307.911 199.958 308.173 199.894 308.437 199.894C308.702 199.894 308.963 199.958 309.204 200.081C309.217 200.088 309.229 200.097 309.239 200.108C309.249 200.12 309.256 200.134 309.261 200.149C309.266 200.164 309.268 200.18 309.267 200.196C309.266 200.212 309.262 200.227 309.256 200.242C309.247 200.262 309.232 200.279 309.215 200.29C309.197 200.301 309.177 200.306 309.157 200.305Z" fill="#263238"/>
<path opacity="0.7" d="M316.967 197.724C316.926 197.774 316.88 197.819 316.829 197.855L312.859 200.718L307.295 204.703C307.006 204.945 306.658 205.079 306.299 205.088C305.94 205.097 305.587 204.979 305.29 204.752C305.523 204.587 316.63 196.762 316.742 196.602L316.958 196.835C317.055 196.957 317.11 197.114 317.111 197.278C317.113 197.441 317.062 197.6 316.967 197.724Z" fill="white"/>
<path d="M279.819 191.037L286.416 195.61C285.924 201.175 284.688 206.229 285.167 208.961L283.042 210.676L280.143 207.274C280.143 207.274 280.39 197.316 279.819 191.037Z" fill="#B97964"/>
<path d="M279.88 204.82L281.841 204.776C282.843 206.584 283.487 206.127 284.433 204.776C285.003 204.689 285.168 205.418 285.219 205.617L286.368 209.952C286.416 210.126 286.4 210.314 286.325 210.475C286.25 210.636 286.121 210.757 285.967 210.812C285.909 210.831 285.85 210.841 285.79 210.841L281.081 210.953L274.488 211.114C272.691 211.152 272.281 209.126 273.02 208.922C276.333 208.013 278.666 206.856 279.677 205.738C279.88 205.578 279.681 205.418 279.88 204.82Z" fill="#6D61F2"/>
<path d="M280.139 207.036C280.121 207.037 280.103 207.032 280.087 207.023C280.072 207.013 280.058 207 280.048 206.983C279.919 206.765 279.75 206.581 279.551 206.444C279.353 206.307 279.13 206.221 278.899 206.19C278.885 206.189 278.871 206.184 278.859 206.176C278.846 206.168 278.835 206.157 278.826 206.145C278.818 206.132 278.811 206.118 278.807 206.102C278.803 206.086 278.802 206.07 278.804 206.054C278.805 206.038 278.809 206.022 278.816 206.008C278.823 205.993 278.832 205.981 278.844 205.971C278.855 205.961 278.868 205.953 278.882 205.949C278.896 205.945 278.911 205.945 278.925 205.947C279.186 205.984 279.437 206.084 279.661 206.24C279.884 206.396 280.076 206.605 280.221 206.851C280.236 206.878 280.241 206.91 280.236 206.941C280.23 206.972 280.214 206.999 280.191 207.017C280.176 207.028 280.158 207.035 280.139 207.036Z" fill="#263238"/>
<path d="M279.266 207.823C279.249 207.823 279.231 207.818 279.215 207.809C279.2 207.8 279.186 207.786 279.176 207.77C279.046 207.552 278.877 207.368 278.678 207.231C278.48 207.093 278.258 207.005 278.027 206.973C277.999 206.969 277.973 206.953 277.955 206.929C277.938 206.904 277.929 206.873 277.932 206.842C277.933 206.825 277.937 206.809 277.943 206.795C277.95 206.781 277.96 206.768 277.971 206.758C277.982 206.748 277.996 206.741 278.01 206.737C278.024 206.733 278.038 206.732 278.053 206.735C278.313 206.772 278.564 206.871 278.787 207.026C279.011 207.181 279.202 207.389 279.349 207.634C279.364 207.661 279.369 207.694 279.363 207.726C279.358 207.757 279.342 207.785 279.318 207.804C279.303 207.816 279.285 207.822 279.266 207.823Z" fill="#263238"/>
<path d="M278.178 208.494C278.159 208.495 278.141 208.49 278.125 208.48C278.109 208.47 278.095 208.454 278.087 208.436C277.958 208.218 277.788 208.035 277.59 207.898C277.391 207.761 277.169 207.674 276.938 207.643C276.924 207.642 276.91 207.637 276.897 207.629C276.885 207.621 276.874 207.61 276.865 207.598C276.856 207.585 276.85 207.571 276.846 207.555C276.842 207.54 276.841 207.523 276.843 207.507C276.843 207.491 276.847 207.476 276.853 207.461C276.859 207.447 276.868 207.434 276.879 207.424C276.891 207.414 276.903 207.406 276.917 207.402C276.931 207.398 276.945 207.398 276.96 207.4C277.221 207.438 277.471 207.538 277.695 207.694C277.919 207.85 278.11 208.058 278.256 208.304C278.265 208.323 278.27 208.344 278.271 208.365C278.271 208.386 278.267 208.407 278.259 208.426C278.25 208.445 278.237 208.461 278.222 208.473C278.206 208.485 278.188 208.492 278.169 208.494H278.178Z" fill="#263238"/>
<path opacity="0.7" d="M285.984 210.822C285.926 210.841 285.867 210.851 285.807 210.851L281.098 210.963L274.506 211.123C274.148 211.159 273.79 211.069 273.48 210.865C273.171 210.661 272.925 210.354 272.778 209.986C273.05 209.986 286.17 209.787 286.325 209.714L286.403 210.039C286.43 210.205 286.402 210.376 286.325 210.52C286.248 210.664 286.127 210.771 285.984 210.822Z" fill="white"/>
<path d="M288.727 84.7924C288.727 84.7924 287.988 82.0514 288.766 76.9387L288.52 76.8415C288.628 76.1271 288.749 75.4612 288.87 74.8975C288.87 74.8894 288.87 74.8813 288.87 74.8732L283.254 79.8255C283.556 81.3904 283.357 84.5154 283.189 85.847C283.189 85.847 282.662 88.277 285.44 88.034C287.487 87.8396 288.727 84.7924 288.727 84.7924Z" fill="#B97964"/>
<path opacity="0.2" d="M283.392 82.0562L286.77 80.7343C286.576 81.9882 285.768 83.5483 283.37 83.9711C283.423 83.3345 283.431 82.6941 283.392 82.0562Z" fill="black"/>
<path d="M288.576 71.5684C288.602 75.9132 288.693 78.3724 286.878 80.7149C284.152 84.2481 279.392 82.6589 278.208 78.4112C277.145 74.5718 277.279 68.1129 280.951 66.1397C281.765 65.7034 282.663 65.5063 283.563 65.5668C284.463 65.6273 285.334 65.9434 286.096 66.4857C286.858 67.0279 287.484 67.7786 287.918 68.6674C288.352 69.5563 288.578 70.5544 288.576 71.5684Z" fill="#B97964"/>
<path d="M288.762 66.3244C288.088 63.9819 282.774 64.3804 281.366 65.6926C281.154 65.8919 284.39 67.4325 284.213 67.3693L285.729 67.831C285.954 67.7581 286.42 68.0206 286.701 68.803C286.701 68.803 286.934 75.4515 288.723 77.2448C290.019 76.4041 289.941 73.7651 290.269 72.171C290.758 69.7847 291.311 66.3098 288.762 66.3244Z" fill="#263238"/>
<path d="M290.326 75.0578C290.211 75.5821 290.005 76.0754 289.72 76.5093C289.434 76.9431 289.075 77.3088 288.662 77.585C287.552 78.314 287.038 76.9338 287.064 75.5633C287.09 74.3288 287.319 72.8077 288.567 72.6473C289.816 72.4869 290.602 73.7554 290.326 75.0578Z" fill="#B97964"/>
<path d="M283.159 73.2402C283.185 73.6825 282.999 74.0518 282.727 74.0713C282.455 74.0907 282.239 73.7408 282.213 73.2985C282.187 72.8563 282.372 72.482 282.645 72.4675C282.917 72.4529 283.133 72.7979 283.159 73.2402Z" fill="#263238"/>
<path d="M279.301 73.6193C279.327 74.0615 279.141 74.4358 278.869 74.4552C278.597 74.4746 278.381 74.1247 278.355 73.6825C278.329 73.2402 278.515 72.866 278.787 72.8514C279.059 72.8368 279.275 73.177 279.301 73.6193Z" fill="#263238"/>
<path d="M280.545 73.2791C280.545 73.2791 279.431 75.573 279.085 76.5013C279.668 77.0164 280.597 76.6859 280.597 76.6859L280.545 73.2791Z" fill="#A24E3F"/>
<path d="M283.992 71.0775C283.964 71.0963 283.932 71.1063 283.9 71.1063C283.867 71.1063 283.835 71.0963 283.807 71.0775C283.618 70.9247 283.4 70.8239 283.17 70.7834C282.941 70.7429 282.706 70.7637 282.485 70.8442C282.44 70.8652 282.389 70.8653 282.343 70.8443C282.298 70.8234 282.262 70.7832 282.243 70.7324C282.233 70.7076 282.227 70.6808 282.227 70.6535C282.226 70.6263 282.231 70.5992 282.239 70.5738C282.248 70.5484 282.262 70.5253 282.278 70.5058C282.295 70.4863 282.316 70.4708 282.338 70.4603C282.617 70.354 282.914 70.3237 283.206 70.3719C283.497 70.42 283.774 70.5453 284.014 70.7373C284.034 70.752 284.052 70.7712 284.066 70.7937C284.079 70.8162 284.089 70.8416 284.094 70.8683C284.099 70.8951 284.099 70.9226 284.094 70.9494C284.089 70.9761 284.08 71.0015 284.066 71.024C284.045 71.0478 284.02 71.066 283.992 71.0775Z" fill="#263238"/>
<path d="M281.971 78.1828C281.932 78.1757 281.897 78.1535 281.872 78.1201C281.847 78.0868 281.833 78.0444 281.833 78.0006C281.833 77.9568 281.847 77.9144 281.872 77.881C281.897 77.8476 281.932 77.8254 281.971 77.8183C282.261 77.7779 282.541 77.6707 282.793 77.5035C283.045 77.3363 283.263 77.1126 283.435 76.8463C283.45 76.8291 283.468 76.8155 283.488 76.8061C283.507 76.7968 283.528 76.792 283.55 76.792C283.571 76.792 283.592 76.7968 283.612 76.8061C283.631 76.8155 283.649 76.8291 283.664 76.8463C283.694 76.8808 283.711 76.927 283.711 76.9751C283.711 77.0232 283.694 77.0694 283.664 77.1039C283.462 77.4011 283.209 77.6494 282.919 77.834C282.63 78.0185 282.31 78.1355 281.979 78.178L281.971 78.1828Z" fill="#263238"/>
<path opacity="0.2" d="M287.712 75.4807C287.698 75.4807 287.683 75.4774 287.67 75.471C287.657 75.4645 287.645 75.455 287.635 75.4431C287.626 75.4313 287.618 75.4172 287.614 75.4019C287.609 75.3866 287.607 75.3704 287.608 75.3543C287.621 74.9571 287.729 74.5712 287.919 74.2365C288.075 73.9404 288.316 73.7125 288.602 73.5901C288.753 73.5339 288.915 73.5287 289.069 73.5754C289.223 73.622 289.361 73.7184 289.466 73.8526C289.486 73.8753 289.497 73.9058 289.497 73.9376C289.497 73.9694 289.486 73.9999 289.466 74.0227C289.456 74.0343 289.444 74.0436 289.431 74.0499C289.418 74.0562 289.404 74.0595 289.39 74.0595C289.376 74.0595 289.362 74.0562 289.349 74.0499C289.336 74.0436 289.324 74.0343 289.315 74.0227C289.236 73.9248 289.133 73.8554 289.019 73.8234C288.905 73.7914 288.786 73.7981 288.675 73.8428C288.439 73.9446 288.24 74.1351 288.114 74.3823C287.942 74.6818 287.845 75.0275 287.833 75.3835C287.828 75.414 287.812 75.4411 287.79 75.4592C287.767 75.4773 287.739 75.485 287.712 75.4807Z" fill="black"/>
<path d="M277.487 71.8843C277.45 71.8756 277.416 71.8573 277.387 71.8308C277.353 71.7918 277.335 71.7395 277.335 71.685C277.335 71.6305 277.353 71.5782 277.387 71.5392C277.576 71.2886 277.815 71.0928 278.085 70.9685C278.355 70.8441 278.648 70.7948 278.938 70.8248C278.963 70.8283 278.986 70.8373 279.007 70.8514C279.028 70.8654 279.047 70.8841 279.061 70.9064C279.076 70.9286 279.086 70.954 279.092 70.9809C279.097 71.0078 279.098 71.0357 279.094 71.0629C279.091 71.0897 279.083 71.1155 279.07 71.1387C279.058 71.1619 279.042 71.1821 279.022 71.198C279.003 71.2139 278.981 71.2252 278.958 71.2312C278.934 71.2372 278.91 71.2379 278.886 71.233C278.656 71.2113 278.424 71.2531 278.211 71.3547C277.998 71.4563 277.81 71.6147 277.664 71.8162C277.642 71.8438 277.614 71.8645 277.583 71.8765C277.552 71.8884 277.519 71.8911 277.487 71.8843Z" fill="#263238"/>
<path d="M289.44 64.3853C289.081 63.4424 287.95 63.3355 287.12 63.6125C287.068 62.4267 285.647 61.8727 284.787 61.9893C284.344 61.9964 283.921 62.1947 283.604 62.5433C283.673 62.5433 283.284 61.9844 283.055 61.7657C282.638 61.3694 282.125 61.1228 281.582 61.0578C281.039 60.9928 280.491 61.1125 280.009 61.4012C279.531 61.7263 279.143 62.1963 278.891 62.7576C278.639 63.3188 278.533 63.9486 278.584 64.5748C278.433 64.436 278.26 64.3323 278.073 64.2698C277.887 64.2073 277.691 64.1872 277.498 64.2107C277.304 64.2343 277.117 64.3009 276.947 64.4068C276.776 64.5127 276.627 64.6558 276.506 64.8275C276.28 65.2053 276.184 65.6626 276.236 66.1142C276.287 66.5657 276.483 66.9807 276.787 67.2818C276.452 67.3603 276.158 67.5847 275.969 67.9061C275.78 68.2276 275.713 68.6199 275.78 68.9974C275.852 69.3707 276.051 69.6974 276.334 69.9073C276.618 70.1172 276.963 70.1936 277.297 70.1201C277.405 70.99 277.569 72.0641 277.677 72.9486L278.467 69.6292C278.986 69.3668 279.068 69.08 279.124 68.4142C279.582 69.2015 280.195 69.0752 280.986 68.9634C281.39 68.8945 281.77 68.7016 282.083 68.4058C282.396 68.11 282.631 67.7228 282.761 67.2867C282.982 67.7041 283.3 68.0459 283.681 68.2754C284.061 68.5049 284.49 68.6134 284.921 68.5892C285.348 68.5242 285.738 68.2824 286.014 67.9112C286.291 67.5399 286.434 67.0659 286.416 66.582C286.691 66.9693 287.081 67.2318 287.515 67.3211C287.948 67.4104 288.396 67.3205 288.775 67.068C289.137 66.7692 289.399 66.3424 289.52 65.856C289.64 65.3696 289.612 64.8517 289.44 64.3853Z" fill="#263238"/>
<path d="M295.285 84.5154C295.285 84.5154 298.741 84.6223 300.102 88.9332C301.398 92.9038 304.612 101.661 304.612 101.661L296.875 104.208L293.795 93.8418L295.285 84.5154Z" fill="#6D61F2"/>
<path d="M282.653 125.874L287.315 137.052C287.315 137.052 279.91 162.125 279.465 164.754C279.02 167.383 278.813 200.29 278.813 200.29H287.051L290.304 168.156C290.304 168.156 300.305 140.882 301.039 138.666C302.413 134.515 300.974 128.946 300.974 128.946L298.426 124.815L282.653 125.874Z" fill="#263238"/>
<path d="M278.126 131.478C278.126 132.493 281.34 167.223 281.867 167.349C282.394 167.476 305.679 196.12 305.679 196.12L312.288 189.589L295.207 163.529L293.328 140.114L292.65 125.388L277.776 126.637L278.126 131.478Z" fill="#263238"/>
<path opacity="0.4" d="M289.427 176.408L289.837 168.248L294.624 156.317L291.03 168.934L290.688 177.57L289.427 176.408Z" fill="black"/>
<path opacity="0.4" d="M280.796 159.427L287.315 137.057L285.042 134.724L285.764 137.932L280.511 156.774L280.796 159.427Z" fill="black"/>
<path d="M258.263 95.3921L268.35 105.807L273.05 95.9607C273.05 95.9607 278.182 101.661 278.005 101.744C277.828 101.827 271.957 116.271 267.736 113.68C263.516 111.09 256.357 98.0554 256.357 98.0554L258.263 95.3921Z" fill="#B97964"/>
<path opacity="0.2" d="M268.35 105.807C268.35 105.807 269.214 107.382 269.114 108.869C269.378 108.279 269.473 107.612 269.387 106.959C269.316 106.246 269.1 105.561 268.756 104.957L268.35 105.807Z" fill="black"/>
<path d="M277.633 87.1009C280.39 88.6901 281.496 94.3375 275.577 107.955L268.51 101.817C269.641 98.415 270.791 96.6557 272.605 92.5295C275.478 86.1289 277.633 87.1009 277.633 87.1009Z" fill="#6D61F2"/>
<path d="M277.547 86.8968C279.491 86.4108 287.215 84.1363 295.475 84.5251L299.843 119.148C299.843 119.148 300.707 123.687 301.851 128.183C293.98 133.31 283.059 134.136 277.201 131.342C277.279 131.478 277.093 127.643 276.843 122.025C276.411 112.125 275.746 96.68 275.949 87.6647C275.957 87.446 277.344 86.9454 277.547 86.8968Z" fill="#6D61F2"/>
<path opacity="0.2" d="M276.216 106.449L275.94 95.2512L274.683 107.178L275.577 107.955L276.216 106.449Z" fill="black"/>
<path opacity="0.2" d="M297.307 104.067L296.875 104.208L294.058 95.7177L296.171 105.433L297.609 105.443L297.307 104.067Z" fill="black"/>
<path d="M259.235 97.2C259.235 97.2 260.008 95.8246 259.731 94.5173C259.455 93.21 259.546 92.0873 259.299 91.1153C259.053 90.1433 258.552 91.3972 258.435 92.1165C258.319 92.8357 258.137 93.6474 257.671 93.4481C257.204 93.2488 254.526 89.5018 253.856 89.3025C253.187 89.1033 253.45 89.8614 253.45 89.8614C253.45 89.8614 252.776 88.972 252.392 89.1762C252.292 89.2296 252.137 89.5358 252.392 89.9926C252.953 91.0278 254.236 93.1273 254.236 93.1273C254.163 93.0058 252.418 90.5418 252.111 90.2113C251.713 89.7788 251.333 89.8031 251.117 90.0704C250.811 90.4495 252.884 93.589 252.888 93.7932C252.888 93.7932 251.748 91.9366 251.16 92.0095C250.573 92.0824 251.238 93.2877 251.999 94.2306C252.698 95.0956 253.869 96.9959 254.655 97.7929C255.627 98.7649 256.474 99.1975 257.597 98.6483C258.245 98.3318 258.808 97.833 259.235 97.2Z" fill="#B97964"/>
<path opacity="0.3" d="M255.005 92.2817C254.996 92.2819 254.988 92.2792 254.98 92.2741C254.972 92.2689 254.966 92.2615 254.962 92.2525C254.5 91.4749 254.003 90.7168 253.485 89.9975C253.479 89.992 253.475 89.9853 253.472 89.9777C253.469 89.9702 253.467 89.962 253.467 89.9537C253.467 89.9455 253.469 89.9373 253.472 89.9298C253.475 89.9222 253.479 89.9155 253.485 89.91C253.489 89.9046 253.495 89.9003 253.501 89.8973C253.508 89.8944 253.514 89.8929 253.521 89.8929C253.528 89.8929 253.535 89.8944 253.541 89.8973C253.547 89.9003 253.553 89.9046 253.558 89.91C254.081 90.6341 254.578 91.3972 255.044 92.1748C255.053 92.187 255.058 92.2025 255.058 92.2185C255.058 92.2345 255.053 92.25 255.044 92.2622L255.005 92.2817Z" fill="black"/>
<path opacity="0.3" d="M253.269 94.5902C253.259 94.5939 253.248 94.5939 253.238 94.5902C253.234 94.5847 253.23 94.5783 253.227 94.5712C253.224 94.5641 253.223 94.5565 253.223 94.5489C253.223 94.5412 253.224 94.5336 253.227 94.5265C253.23 94.5194 253.234 94.513 253.238 94.5075C253.881 93.5111 254.768 92.7476 255.791 92.3108C255.804 92.3096 255.817 92.3131 255.827 92.3209C255.838 92.3287 255.846 92.3403 255.85 92.3538C255.854 92.3673 255.854 92.3819 255.849 92.3953C255.845 92.4086 255.837 92.42 255.826 92.4275C254.825 92.8551 253.955 93.6015 253.325 94.5756C253.318 94.5846 253.309 94.5909 253.299 94.5935C253.289 94.5962 253.278 94.595 253.269 94.5902Z" fill="black"/>
<path opacity="0.3" d="M257.381 96.8161C257.373 96.8156 257.365 96.8132 257.357 96.809C257.35 96.8048 257.343 96.7989 257.338 96.7918C257.065 96.3816 256.928 95.877 256.95 95.3651C256.972 94.8532 257.152 94.366 257.459 93.9875C257.47 93.9773 257.484 93.9716 257.498 93.9716C257.512 93.9716 257.526 93.9773 257.537 93.9875C257.547 93.9993 257.552 94.015 257.552 94.0313C257.552 94.0476 257.547 94.0633 257.537 94.075C257.246 94.4318 257.075 94.8919 257.053 95.3757C257.032 95.8594 257.162 96.3363 257.42 96.7237C257.425 96.7291 257.429 96.7356 257.431 96.7427C257.434 96.7498 257.435 96.7574 257.435 96.765C257.435 96.7727 257.434 96.7803 257.431 96.7874C257.429 96.7945 257.425 96.8009 257.42 96.8063C257.409 96.8148 257.395 96.8183 257.381 96.8161Z" fill="black"/>
<path d="M304.029 101.851C304.029 101.851 306.357 108.052 307.342 113.617C307.774 116.144 305.994 117.768 304.158 118.263C298.369 119.838 285.323 119.843 285.323 119.843L284.982 115.367L300.007 111.712L297.307 104.067L304.029 101.851Z" fill="#B97964"/>
<path d="M285.293 120.8L280.368 121.422C280.285 121.432 280.2 121.421 280.121 121.39C280.042 121.359 279.97 121.309 279.91 121.242L272.415 112.908C272.345 112.829 272.294 112.732 272.268 112.624C272.242 112.517 272.242 112.404 272.267 112.296C272.293 112.189 272.343 112.091 272.413 112.012C272.483 111.933 272.57 111.877 272.665 111.848L276.985 110.594C277.079 110.566 277.177 110.566 277.27 110.594C277.364 110.622 277.449 110.678 277.517 110.755L285.608 119.721C285.684 119.804 285.737 119.909 285.762 120.024C285.787 120.138 285.783 120.259 285.75 120.372C285.717 120.484 285.657 120.584 285.576 120.66C285.495 120.735 285.397 120.784 285.293 120.8Z" fill="#263238"/>
<path d="M285.751 115.391C285.751 115.391 285.613 114.74 283.435 113.991C281.781 113.423 280.135 111.683 279.867 111.741C279.599 111.799 279.31 112.752 279.997 113.588C280.683 114.424 281.396 114.9 281.215 115.221C280.783 115.994 275.391 115.362 275.296 116.023C275.201 116.684 276.234 118.579 279.115 119.843C281.997 121.106 285.954 119.843 285.954 119.843L285.751 115.391Z" fill="#B97964"/>
<path d="M258.569 189.083L31.4021 195.071V151.36H260.755L258.569 189.083Z" fill="#263238"/>
<path opacity="0.5" d="M258.569 189.083L31.4021 195.071V151.36H260.755L258.569 189.083Z" fill="black"/>
<path d="M22.6627 162.577V184.743C22.663 187.057 23.3216 189.309 24.5421 191.171C25.7625 193.033 27.4807 194.406 29.4451 195.09L31.0522 195.639C32.0399 195.987 33.0716 196.151 34.1064 196.125L44.7163 195.843C43.5873 191.401 43.3781 186.727 44.1048 182.18C44.8315 177.632 46.4748 173.333 48.9086 169.611C51.3423 165.889 54.5017 162.845 58.1442 160.711C61.7868 158.576 65.8156 157.41 69.9213 157.3C74.0271 157.19 78.1006 158.14 81.8291 160.078C85.5576 162.015 88.842 164.887 91.43 168.475C94.0181 172.062 95.841 176.269 96.7589 180.772C97.6767 185.276 97.6651 189.956 96.7248 194.453L204.682 191.567C204.508 190.148 204.423 188.717 204.427 187.285C204.4 183.284 205.079 179.316 206.425 175.613C207.771 171.909 209.757 168.542 212.268 165.708C214.779 162.874 217.765 160.629 221.053 159.103C224.34 157.577 227.865 156.8 231.422 156.817C234.978 156.835 238.497 157.646 241.773 159.204C245.049 160.763 248.017 163.037 250.506 165.895C252.995 168.753 254.955 172.139 256.272 175.856C257.59 179.573 258.238 183.547 258.18 187.547C258.18 188.135 258.142 188.714 258.142 189.297C258.289 189.236 258.433 189.166 258.574 189.088L262.267 187.236C264.05 186.33 265.563 184.865 266.624 183.016C267.686 181.167 268.25 179.013 268.25 176.812V131.662C268.251 129.579 267.746 127.535 266.789 125.752C265.832 123.968 264.459 122.513 262.82 121.544L235.073 105.127C234.824 104.977 234.618 104.75 234.482 104.472C234.345 104.194 234.282 103.878 234.301 103.561C234.32 103.245 234.421 102.941 234.59 102.686C234.759 102.432 234.99 102.238 235.254 102.128L238.65 100.758C238.819 100.693 238.965 100.566 239.062 100.396C239.159 100.227 239.202 100.026 239.183 99.8251C239.165 99.6247 239.087 99.437 238.962 99.293C238.837 99.149 238.672 99.057 238.494 99.0322C225.305 96.9521 174.027 89.424 147.07 93.1176C115.966 97.3993 86.1797 127.755 86.1797 127.755C63.2837 126.783 41.9386 135.75 32.7413 140.245C31.2738 140.967 29.9566 142.026 28.8741 143.354C27.7917 144.682 26.9679 146.251 26.4557 147.958L23.328 158.436C22.9097 159.767 22.685 161.165 22.6627 162.577Z" fill="#6D61F2"/>
<path d="M204.712 191.557C204.552 190.225 204.474 188.882 204.479 187.538C204.479 186.852 204.479 186.177 204.535 185.501L185.013 176.515C183.869 175.994 182.637 175.768 181.406 175.854L113.504 180.87C112.394 180.943 111.31 181.274 110.32 181.842L97.4204 189.307C97.3291 191.036 97.111 192.755 96.7681 194.444L204.712 191.557Z" fill="#263238"/>
<path d="M268.272 176.802V175.65L257.23 179.451C257.875 182.085 258.201 184.805 258.198 187.538C258.198 188.126 258.159 188.704 258.159 189.287C258.306 189.226 258.45 189.156 258.591 189.078L262.293 187.227C264.075 186.32 265.587 184.854 266.648 183.005C267.708 181.156 268.272 179.002 268.272 176.802Z" fill="#263238"/>
<path d="M25.7991 192.699C26.8523 193.797 28.1117 194.614 29.484 195.09L31.104 195.639C32.0932 195.988 33.1263 196.152 34.1626 196.125L44.7552 195.858C44.3712 194.351 44.0939 192.812 43.9258 191.256L25.7991 192.699Z" fill="#263238"/>
<path d="M231.375 154.461C227.206 154.456 223.083 155.449 219.282 157.375C215.48 159.301 212.087 162.116 209.327 165.631C206.567 169.147 204.504 173.283 203.275 177.764C202.045 182.246 201.678 186.971 202.198 191.625L204.746 191.557C204.235 187.442 204.483 183.253 205.475 179.251C206.467 175.249 208.181 171.519 210.511 168.295C212.84 165.072 215.736 162.422 219.016 160.513C222.296 158.604 225.891 157.476 229.576 157.199C233.261 156.922 236.957 157.503 240.433 158.904C243.91 160.306 247.093 162.498 249.783 165.345C252.473 168.192 254.613 171.631 256.069 175.45C257.525 179.268 258.266 183.383 258.245 187.538C258.245 188.126 258.202 188.704 258.202 189.287C258.349 189.226 258.493 189.156 258.634 189.078L260.755 187.999V187.538C260.747 178.767 257.646 170.358 252.133 164.157C246.62 157.955 239.145 154.468 231.349 154.461H231.375Z" fill="#263238"/>
<path d="M70.5974 154.461C66.102 154.459 61.6661 155.617 57.6308 157.846C53.5955 160.074 50.0681 163.314 47.32 167.317C44.5718 171.319 42.676 175.977 41.7783 180.932C40.8805 185.888 41.0048 191.009 42.1416 195.902L44.7336 195.834C43.6164 191.395 43.4168 186.728 44.1501 182.189C44.8834 177.651 46.5302 173.361 48.9644 169.649C51.3985 165.936 54.5555 162.9 58.1935 160.772C61.8316 158.644 65.8543 157.48 69.9536 157.371C74.0529 157.261 78.1202 158.208 81.8439 160.14C85.5677 162.071 88.8492 164.936 91.4372 168.514C94.0252 172.092 95.8511 176.289 96.7751 180.784C97.6991 185.278 97.6966 189.951 96.768 194.444L99.36 194.371C100.265 189.553 100.202 184.569 99.1766 179.783C98.1509 174.996 96.1881 170.527 93.4315 166.703C90.6748 162.878 87.1939 159.794 83.2427 157.676C79.2915 155.558 74.9698 154.46 70.5931 154.461H70.5974Z" fill="#263238"/>
<path d="M96.1848 129.023C95.9277 129.281 95.7333 129.609 95.62 129.975C95.5068 130.341 95.4785 130.734 95.5377 131.116C95.597 131.498 95.7419 131.857 95.9587 132.158C96.1754 132.459 96.457 132.694 96.7767 132.838L108.009 136.376C108.998 136.692 110.034 136.78 111.054 136.634L194.257 125.038C196.339 124.707 198.237 123.519 199.584 121.704L210.509 107.406C210.88 106.913 211.108 106.304 211.162 105.661C211.313 104.033 210.401 102.565 209.136 102.381C189.216 99.4016 164.017 96.714 148.111 98.8816C127.263 101.744 106.272 119.376 96.1848 129.023Z" fill="#6D61F2"/>
<path opacity="0.8" d="M96.5607 129.023C96.3035 129.281 96.1091 129.609 95.9959 129.975C95.8827 130.341 95.8543 130.734 95.9136 131.116C95.9728 131.498 96.1177 131.857 96.3345 132.158C96.5513 132.459 96.8328 132.694 97.1525 132.838L108.385 136.376C109.374 136.692 110.41 136.779 111.43 136.634L192.776 130.365C194.802 130.073 197.929 125.889 200.141 122.487L210.881 107.406C211.255 106.915 211.484 106.305 211.537 105.661C211.684 104.033 210.777 102.565 209.511 102.381C189.583 99.4113 164.393 96.7091 148.487 98.8913C127.634 101.744 106.648 119.376 96.5607 129.023Z" fill="white"/>
<g opacity="0.3">
<path d="M150.915 137.946C150.664 137.841 150.459 137.63 150.344 137.358C150.229 137.086 150.212 136.774 150.297 136.488C150.413 136.125 150.623 135.81 150.899 135.581C151.175 135.353 151.506 135.222 151.848 135.205L161.749 134.719C161.883 134.711 162.017 134.732 162.143 134.782C162.4 134.888 162.61 135.103 162.727 135.381C162.844 135.66 162.859 135.979 162.769 136.27C162.651 136.633 162.44 136.949 162.163 137.176C161.885 137.404 161.553 137.533 161.209 137.548L151.308 138.034C151.173 138.034 151.039 138.005 150.915 137.946Z" fill="black"/>
</g>
<path d="M224.554 106.026C224.135 106.448 223.881 107.04 223.849 107.672C223.816 108.304 224.008 108.925 224.381 109.399L226.727 112.271C226.998 112.592 227.341 112.825 227.72 112.946L256.483 121.923C256.984 122.074 257.501 122.151 258.021 122.151H263.736C263.438 121.928 263.131 121.724 262.816 121.534L235.069 105.102C234.733 104.915 234.477 104.586 234.357 104.187C234.237 103.788 234.263 103.351 234.429 102.974L225.418 105.511C225.098 105.606 224.803 105.782 224.554 106.026Z" fill="#6D61F2"/>
<path d="M45.4292 144.473L35.6141 143.268L29.9981 145.863C29.413 146.131 28.8919 146.55 28.477 147.086C28.062 147.622 27.7648 148.26 27.6092 148.949C27.423 149.758 27.5269 150.617 27.8986 151.34L27.998 151.53C28.306 152.127 28.765 152.608 29.3166 152.911C29.8682 153.214 30.4874 153.325 31.0954 153.231L36.7546 152.356C37.3002 152.259 37.8155 152.01 38.2537 151.632L44.7812 146.058L45.4292 144.473Z" fill="white"/>
<path d="M86.2013 127.74L87.7651 128.226C88.3633 128.418 88.9942 128.441 89.6022 128.294C90.2102 128.146 90.7766 127.833 91.2514 127.381C100.349 118.725 116.165 105.443 133.229 99.2558C133.288 99.2341 133.34 99.1934 133.379 99.1388C133.418 99.0842 133.442 99.018 133.448 98.9484C133.454 98.8788 133.441 98.8087 133.413 98.7468C133.384 98.6848 133.339 98.6337 133.285 98.5997L131.164 97.375C106.544 106.993 86.2013 127.74 86.2013 127.74Z" fill="#6D61F2"/>
<path opacity="0.8" d="M86.2013 127.74L87.7651 128.226C88.3633 128.418 88.9942 128.441 89.6022 128.294C90.2102 128.146 90.7766 127.833 91.2514 127.381C100.349 118.725 116.165 105.443 133.229 99.2558C133.288 99.2341 133.34 99.1934 133.379 99.1388C133.418 99.0842 133.442 99.018 133.448 98.9484C133.454 98.8788 133.441 98.8087 133.413 98.7468C133.384 98.6848 133.339 98.6337 133.285 98.5997L131.164 97.375C106.544 106.993 86.2013 127.74 86.2013 127.74Z" fill="white"/>
<path opacity="0.2" d="M179.479 139.429L96.7681 146.082L98.3276 157.561C98.8037 161.077 99.9615 164.432 101.719 167.388L108.631 179.013L179.228 168.273L212.609 139.429H179.479Z" fill="white"/>
<path d="M231.349 212.727C243.717 212.727 253.744 201.447 253.744 187.533C253.744 173.618 243.717 162.339 231.349 162.339C218.981 162.339 208.954 173.618 208.954 187.533C208.954 201.447 218.981 212.727 231.349 212.727Z" fill="#263238"/>
<path opacity="0.4" d="M231.349 202.978C238.931 202.978 245.078 196.063 245.078 187.533C245.078 179.003 238.931 172.088 231.349 172.088C223.767 172.088 217.62 179.003 217.62 187.533C217.62 196.063 223.767 202.978 231.349 202.978Z" fill="white"/>
<g opacity="0.3">
<path d="M231.353 173.643H231.349C230.743 173.643 230.252 174.196 230.252 174.877V182.794C230.252 183.476 230.743 184.029 231.349 184.029H231.353C231.959 184.029 232.451 183.476 232.451 182.794V174.877C232.451 174.196 231.959 173.643 231.353 173.643Z" fill="white"/>
</g>
<g opacity="0.3">
<path d="M231.353 191.047H231.349C230.743 191.047 230.252 191.599 230.252 192.281V200.198C230.252 200.88 230.743 201.432 231.349 201.432H231.353C231.959 201.432 232.451 200.88 232.451 200.198V192.281C232.451 191.599 231.959 191.047 231.353 191.047Z" fill="white"/>
</g>
<g opacity="0.3">
<path d="M235.544 186.24C235.291 186.401 234.992 186.443 234.711 186.357C234.431 186.27 234.193 186.062 234.049 185.778C233.905 185.495 233.866 185.159 233.941 184.844C234.017 184.529 234.2 184.26 234.451 184.097L240.542 180.116C240.796 179.953 241.097 179.909 241.38 179.994C241.662 180.08 241.903 180.288 242.05 180.573C242.192 180.858 242.23 181.195 242.154 181.51C242.078 181.826 241.895 182.095 241.644 182.26L235.557 186.235L235.544 186.24Z" fill="white"/>
</g>
<g opacity="0.3">
<path d="M222.147 194.886C221.896 195.048 221.597 195.092 221.317 195.007C221.037 194.922 220.798 194.716 220.653 194.434C220.581 194.294 220.534 194.139 220.515 193.979C220.496 193.819 220.506 193.656 220.543 193.499C220.581 193.343 220.645 193.197 220.733 193.069C220.82 192.94 220.93 192.833 221.054 192.752L227.146 188.772C227.27 188.69 227.408 188.637 227.55 188.615C227.693 188.593 227.838 188.603 227.978 188.645C228.117 188.686 228.248 188.758 228.362 188.857C228.477 188.956 228.573 189.079 228.645 189.219C228.718 189.36 228.765 189.515 228.785 189.676C228.804 189.837 228.795 190.001 228.758 190.158C228.721 190.315 228.657 190.462 228.569 190.591C228.482 190.721 228.372 190.829 228.247 190.911L222.152 194.886H222.147Z" fill="white"/>
</g>
<g opacity="0.3">
<path d="M240.542 194.935L234.451 190.959C234.198 190.794 234.014 190.522 233.939 190.204C233.863 189.886 233.903 189.548 234.049 189.263C234.198 188.981 234.439 188.775 234.721 188.692C235.003 188.608 235.304 188.653 235.557 188.816L241.644 192.796C241.895 192.961 242.078 193.23 242.154 193.546C242.23 193.861 242.192 194.198 242.05 194.483C241.977 194.624 241.881 194.748 241.766 194.847C241.651 194.946 241.519 195.019 241.379 195.061C241.239 195.103 241.093 195.113 240.949 195.091C240.806 195.07 240.667 195.017 240.542 194.935Z" fill="white"/>
</g>
<g opacity="0.3">
<path d="M228.645 185.783C228.498 186.066 228.258 186.272 227.977 186.356C227.696 186.44 227.397 186.394 227.146 186.23L221.054 182.25C220.93 182.169 220.82 182.062 220.733 181.934C220.645 181.806 220.581 181.659 220.543 181.503C220.506 181.347 220.496 181.184 220.515 181.023C220.534 180.863 220.581 180.708 220.653 180.568C220.799 180.286 221.039 180.08 221.319 179.995C221.6 179.91 221.899 179.954 222.152 180.116L228.247 184.097C228.372 184.178 228.481 184.286 228.568 184.415C228.655 184.544 228.719 184.691 228.755 184.848C228.792 185.005 228.801 185.168 228.781 185.329C228.761 185.489 228.713 185.644 228.64 185.783H228.645Z" fill="white"/>
</g>
<path d="M229.509 187.528C229.509 186.979 229.703 186.452 230.048 186.064C230.393 185.676 230.861 185.458 231.349 185.458C231.715 185.457 232.073 185.578 232.377 185.806C232.682 186.034 232.92 186.358 233.06 186.738C233.201 187.118 233.238 187.537 233.167 187.94C233.096 188.344 232.921 188.715 232.662 189.007C232.404 189.298 232.074 189.497 231.716 189.577C231.357 189.658 230.985 189.617 230.647 189.46C230.309 189.303 230.02 189.036 229.816 188.694C229.613 188.352 229.504 187.949 229.504 187.538L229.509 187.528Z" fill="#263238"/>
<path d="M70.5974 212.732C82.9657 212.732 92.9923 201.452 92.9923 187.538C92.9923 173.623 82.9657 162.343 70.5974 162.343C58.229 162.343 48.2025 173.623 48.2025 187.538C48.2025 201.452 58.229 212.732 70.5974 212.732Z" fill="#263238"/>
<path opacity="0.4" d="M70.5975 202.983C78.1798 202.983 84.3264 196.068 84.3264 187.538C84.3264 179.008 78.1798 172.093 70.5975 172.093C63.0152 172.093 56.8685 179.008 56.8685 187.538C56.8685 196.068 63.0152 202.983 70.5975 202.983Z" fill="white"/>
<g opacity="0.3">
<path d="M70.5975 173.643H70.5931C69.9871 173.643 69.4958 174.196 69.4958 174.877V182.794C69.4958 183.476 69.9871 184.029 70.5931 184.029H70.5975C71.2035 184.029 71.6947 183.476 71.6947 182.794V174.877C71.6947 174.196 71.2035 173.643 70.5975 173.643Z" fill="white"/>
</g>
<g opacity="0.3">
<path d="M70.5975 191.047H70.5931C69.9871 191.047 69.4958 191.599 69.4958 192.281V200.198C69.4958 200.88 69.9871 201.432 70.5931 201.432H70.5975C71.2035 201.432 71.6947 200.88 71.6947 200.198V192.281C71.6947 191.599 71.2035 191.047 70.5975 191.047Z" fill="white"/>
</g>
<g opacity="0.3">
<path d="M74.7836 186.24C74.6594 186.32 74.5225 186.371 74.3807 186.391C74.2389 186.411 74.0951 186.399 73.9574 186.356C73.8197 186.313 73.6909 186.24 73.5784 186.141C73.4659 186.042 73.3719 185.918 73.3018 185.778C73.2288 185.639 73.1811 185.484 73.1613 185.324C73.1416 185.163 73.1502 185 73.1867 184.843C73.2233 184.687 73.287 184.539 73.3742 184.411C73.4614 184.282 73.5704 184.173 73.6949 184.092L79.7948 180.112C79.9198 180.031 80.0578 179.978 80.2009 179.958C80.344 179.937 80.4893 179.948 80.6285 179.99C80.7677 180.033 80.8981 180.106 81.0123 180.205C81.1265 180.304 81.2221 180.428 81.2938 180.568C81.3657 180.709 81.4122 180.864 81.4307 181.025C81.4492 181.186 81.4393 181.35 81.4016 181.506C81.3639 181.663 81.2991 181.81 81.2109 181.938C81.1227 182.067 81.0129 182.174 80.8877 182.255L74.8008 186.23L74.7836 186.24Z" fill="white"/>
</g>
<g opacity="0.3">
<path d="M59.8967 194.453C59.8248 194.313 59.7781 194.159 59.7593 193.998C59.7406 193.838 59.7501 193.675 59.7875 193.519C59.8248 193.363 59.8891 193.216 59.9768 193.088C60.0645 192.96 60.1738 192.852 60.2985 192.772L66.3897 188.792C66.5148 188.709 66.653 188.656 66.7965 188.634C66.94 188.612 67.0859 188.622 67.226 188.663C67.366 188.705 67.4974 188.777 67.6126 188.876C67.7278 188.975 67.8246 189.098 67.8974 189.239C68.0428 189.524 68.0817 189.862 68.0055 190.179C67.9294 190.496 67.7444 190.766 67.4913 190.93L61.4044 194.886C61.1531 195.052 60.8538 195.099 60.5715 195.018C60.2892 194.937 60.0467 194.734 59.8967 194.453Z" fill="white"/>
</g>
<g opacity="0.3">
<path d="M81.2895 194.487C81.2179 194.628 81.1223 194.751 81.0083 194.849C80.8942 194.948 80.7639 195.02 80.625 195.062C80.486 195.103 80.341 195.113 80.1986 195.092C80.0561 195.07 79.9188 195.016 79.7947 194.935L73.6949 190.959C73.4437 190.792 73.2614 190.52 73.1878 190.202C73.1141 189.884 73.1551 189.547 73.3018 189.263C73.448 188.98 73.688 188.774 73.9691 188.69C74.2501 188.607 74.5493 188.652 74.8008 188.816L80.8877 192.796C81.1389 192.961 81.3221 193.23 81.3974 193.546C81.4726 193.862 81.4338 194.199 81.2895 194.483V194.487Z" fill="white"/>
</g>
<g opacity="0.3">
<path d="M67.8887 185.793C67.816 185.933 67.7195 186.055 67.6048 186.152C67.49 186.25 67.3592 186.321 67.22 186.362C67.0807 186.402 66.9357 186.412 66.7932 186.389C66.6507 186.367 66.5136 186.313 66.3897 186.23L60.2985 182.25C60.1738 182.169 60.0645 182.062 59.9768 181.934C59.8891 181.806 59.8248 181.659 59.7875 181.503C59.7501 181.347 59.7406 181.184 59.7593 181.023C59.7781 180.863 59.8248 180.708 59.8967 180.568C60.0432 180.283 60.2841 180.075 60.5667 179.99C60.8493 179.904 61.1505 179.948 61.4044 180.112L67.4913 184.092C67.7425 184.257 67.9257 184.526 68.001 184.842C68.0762 185.158 68.0374 185.494 67.8931 185.778L67.8887 185.793Z" fill="white"/>
</g>
<path d="M70.5974 185.458C70.9633 185.457 71.3212 185.578 71.6258 185.806C71.9305 186.034 72.1681 186.358 72.3087 186.738C72.4494 187.118 72.4866 187.537 72.4157 187.94C72.3449 188.344 72.1691 188.715 71.9107 189.007C71.6523 189.298 71.3229 189.497 70.9641 189.577C70.6053 189.658 70.2333 189.617 69.8952 189.46C69.5571 189.303 69.2681 189.036 69.0647 188.694C68.8614 188.352 68.7528 187.949 68.7528 187.538C68.7528 186.987 68.947 186.459 69.2928 186.069C69.6386 185.679 70.1078 185.459 70.5974 185.458Z" fill="#263238"/>
<path opacity="0.3" d="M265.905 140.012C266.082 139.95 266.247 139.849 266.389 139.715C266.532 139.581 266.65 139.417 266.736 139.232C266.823 139.047 266.876 138.845 266.892 138.637C266.909 138.428 266.889 138.219 266.833 138.019C266.574 132.712 265.572 127.993 262.682 124.746C262.588 124.4 262.391 124.1 262.125 123.896C261.859 123.692 261.539 123.596 261.217 123.624L244.153 125.437C243.855 125.47 243.575 125.612 243.354 125.84C243.216 125.98 243.104 126.149 243.024 126.337C242.944 126.526 242.898 126.731 242.889 126.939C242.88 127.148 242.907 127.357 242.97 127.553C243.033 127.75 243.13 127.931 243.255 128.085L248.141 134.015C248.311 134.219 248.525 134.37 248.763 134.452L265.101 140.021C265.364 140.103 265.643 140.1 265.905 140.012Z" fill="black"/>
<path d="M95.554 130.248C95.4311 130.774 95.4885 131.333 95.715 131.814C95.9415 132.295 96.3205 132.662 96.7766 132.843L108.009 136.381C109.021 136.731 110.069 136.933 111.128 136.984L114.661 136.717L111.326 116.465C103.632 122.151 103.118 122.414 96.2064 129.033C95.8736 129.344 95.6438 129.772 95.554 130.248Z" fill="#263238"/>
<path d="M168.657 98.2303L161.607 132.814L170.83 132.066L175.038 98.5316C172.884 98.4085 170.757 98.3081 168.657 98.2303Z" fill="#263238"/>
<path d="M197.917 125.597L210.877 107.396C211.259 106.9 211.493 106.281 211.546 105.627C211.68 104.004 210.773 102.546 209.52 102.352C206.868 101.948 204.042 101.559 201.221 101.175" fill="#263238"/>
<path d="M105.758 133.747C105.225 133.754 104.697 133.643 104.202 133.42C103.707 133.198 103.257 132.867 102.876 132.448C102.494 132.03 102.19 131.531 101.981 130.979C101.771 130.428 101.66 129.836 101.654 129.237C101.643 128.196 101.949 127.181 102.52 126.361C103.091 125.541 103.893 124.965 104.795 124.727L110.203 123.303L111.581 133.509L105.866 133.757L105.758 133.747Z" fill="#6D61F2"/>
<path opacity="0.3" d="M109.996 133.567L111.581 133.499L110.203 123.303L108.661 123.711L109.996 133.567Z" fill="black"/>
<path opacity="0.6" d="M163.594 177.293H163.573C163.559 177.29 163.546 177.284 163.534 177.275C163.522 177.266 163.512 177.255 163.505 177.242C163.497 177.229 163.492 177.214 163.489 177.199C163.487 177.183 163.487 177.167 163.49 177.152C163.547 176.836 169.461 145.615 170.217 141.363C170.506 139.73 170.614 136.61 170.528 132.075C170.528 132.043 170.539 132.012 170.559 131.989C170.58 131.967 170.607 131.954 170.636 131.954C170.664 131.954 170.69 131.966 170.711 131.988C170.731 132.009 170.743 132.039 170.744 132.07C170.83 136.619 170.722 139.764 170.428 141.411C169.672 145.664 163.758 176.889 163.698 177.2C163.693 177.227 163.68 177.251 163.661 177.268C163.642 177.284 163.618 177.293 163.594 177.293Z" fill="black"/>
<path opacity="0.6" d="M110.32 181.978C110.302 181.978 110.285 181.973 110.269 181.963C110.253 181.954 110.239 181.941 110.229 181.924C110.156 181.798 102.527 169.094 99.9044 163.782C97.2 158.314 95.472 132.114 95.3943 131.001C95.393 130.969 95.4025 130.938 95.421 130.914C95.4394 130.889 95.4654 130.874 95.4936 130.87C95.5078 130.869 95.5221 130.871 95.5357 130.875C95.5492 130.88 95.5618 130.888 95.5726 130.899C95.5835 130.909 95.5924 130.922 95.5988 130.936C95.6053 130.95 95.6092 130.966 95.6103 130.982C95.6103 131.254 97.4247 158.242 100.094 163.665C102.708 168.968 110.333 181.647 110.411 181.788C110.419 181.802 110.424 181.817 110.427 181.833C110.43 181.848 110.43 181.865 110.427 181.88C110.424 181.896 110.419 181.911 110.411 181.925C110.403 181.938 110.392 181.95 110.38 181.958C110.362 181.97 110.341 181.977 110.32 181.978Z" fill="black"/>
<path opacity="0.6" d="M35.6141 143.37C35.5895 143.369 35.5659 143.359 35.5472 143.341C35.5285 143.323 35.5158 143.298 35.5112 143.271C35.5067 143.244 35.5106 143.216 35.5222 143.191C35.5338 143.167 35.5525 143.148 35.5752 143.137C41.4245 140.444 60.1992 135.361 64.5797 134.578C70.1222 133.577 89.0611 128.319 89.2512 128.26C89.2651 128.257 89.2795 128.256 89.2935 128.259C89.3076 128.262 89.321 128.267 89.3331 128.276C89.3451 128.285 89.3556 128.296 89.3637 128.309C89.3719 128.322 89.3777 128.337 89.3808 128.353C89.3847 128.368 89.3857 128.384 89.3838 128.4C89.382 128.416 89.3772 128.431 89.3699 128.444C89.3627 128.458 89.353 128.47 89.3415 128.479C89.3299 128.488 89.3169 128.495 89.303 128.498C89.1129 128.552 70.1654 133.81 64.6099 134.816C60.3374 135.589 41.3597 140.736 35.6659 143.36C35.6499 143.37 35.6318 143.373 35.6141 143.37Z" fill="black"/>
<path opacity="0.8" d="M224.554 106.026C224.135 106.448 223.881 107.04 223.849 107.672C223.816 108.304 224.008 108.925 224.381 109.399L226.727 112.271C226.998 112.592 227.341 112.825 227.72 112.946L256.483 121.923C256.984 122.074 257.501 122.151 258.021 122.151H263.736C263.438 121.928 263.131 121.724 262.816 121.534L235.069 105.102C234.733 104.915 234.477 104.586 234.357 104.187C234.237 103.788 234.263 103.351 234.429 102.974L225.418 105.511C225.098 105.606 224.803 105.782 224.554 106.026Z" fill="white"/>
<path d="M116.515 126.71C116.256 126.885 113.201 130.438 113.201 130.438L113.797 134.841L117.638 130.379L116.515 126.71Z" fill="#263238"/>
<path d="M121.116 135.89C120.791 136.071 120.417 136.099 120.074 135.968C119.731 135.838 119.449 135.56 119.288 135.195L113.184 121.306C113.105 121.125 113.058 120.929 113.046 120.729C113.034 120.528 113.058 120.327 113.115 120.136C113.173 119.946 113.263 119.77 113.381 119.619C113.498 119.467 113.641 119.344 113.802 119.255C113.962 119.165 114.137 119.112 114.316 119.098C114.495 119.084 114.674 119.11 114.844 119.175C115.014 119.24 115.17 119.341 115.305 119.474C115.44 119.607 115.55 119.769 115.629 119.95L121.72 133.84C121.881 134.202 121.908 134.621 121.794 135.006C121.681 135.39 121.437 135.708 121.116 135.89Z" fill="#263238"/>
<path d="M127.764 119.172C127.764 119.172 130.788 132.741 132.555 133.266C135.769 134.194 146.811 133.154 146.595 132.756L146.128 126.516C146.128 126.516 134.996 128.586 135.082 128.367L130.896 117.806L127.764 119.172Z" fill="#EBB373"/>
<path d="M130.542 118.628C130.542 118.628 131.535 117.588 131.561 116.324C131.587 115.06 131.911 114.064 131.872 113.126C131.834 112.188 131.138 113.185 130.862 113.797C130.585 114.409 130.265 115.109 129.89 114.798C129.514 114.487 127.872 110.375 127.298 110.016C126.723 109.656 126.814 110.414 126.814 110.414C126.814 110.414 126.382 109.442 125.997 109.51C125.893 109.51 125.686 109.768 125.82 110.249C126.109 111.338 126.827 113.588 126.827 113.588C126.788 113.457 125.725 110.755 125.531 110.371C125.258 109.885 124.909 109.792 124.667 109.977C124.308 110.239 125.531 113.641 125.487 113.826C125.487 113.826 124.844 111.843 124.299 111.746C123.755 111.649 124.096 112.927 124.589 113.986C125.021 114.958 125.699 116.995 126.243 117.933C126.913 119.085 127.591 119.692 128.727 119.498C129.389 119.388 130.014 119.088 130.542 118.628Z" fill="#EBB373"/>
<path opacity="0.3" d="M127.764 113.039C127.753 113.039 127.742 113.036 127.732 113.029C127.723 113.022 127.716 113.012 127.712 113C127.457 112.174 127.168 111.352 126.848 110.57C126.845 110.562 126.843 110.554 126.842 110.545C126.842 110.537 126.843 110.528 126.846 110.521C126.849 110.513 126.853 110.506 126.859 110.5C126.865 110.494 126.871 110.49 126.878 110.487C126.885 110.484 126.891 110.482 126.898 110.482C126.905 110.482 126.912 110.483 126.918 110.486C126.925 110.488 126.931 110.492 126.936 110.498C126.941 110.503 126.945 110.509 126.948 110.516C127.267 111.318 127.561 112.14 127.812 112.971C127.814 112.978 127.816 112.986 127.816 112.994C127.816 113.002 127.814 113.01 127.811 113.017C127.809 113.024 127.804 113.031 127.799 113.036C127.794 113.042 127.788 113.046 127.781 113.048L127.764 113.039Z" fill="black"/>
<path opacity="0.3" d="M125.712 114.667C125.705 114.67 125.698 114.672 125.69 114.672C125.683 114.672 125.676 114.67 125.669 114.667C125.66 114.655 125.655 114.639 125.655 114.623C125.655 114.607 125.66 114.592 125.669 114.579C126.462 113.849 127.427 113.395 128.447 113.272C128.454 113.271 128.461 113.272 128.468 113.275C128.475 113.277 128.482 113.282 128.488 113.287C128.493 113.292 128.498 113.299 128.501 113.306C128.505 113.314 128.507 113.322 128.507 113.33C128.508 113.338 128.507 113.346 128.505 113.353C128.503 113.36 128.499 113.367 128.495 113.373C128.491 113.379 128.485 113.384 128.479 113.387C128.473 113.391 128.466 113.393 128.46 113.394C127.46 113.513 126.514 113.959 125.738 114.677L125.712 114.667Z" fill="black"/>
<path opacity="0.3" d="M128.956 117.792C128.945 117.792 128.934 117.788 128.925 117.781C128.916 117.774 128.909 117.764 128.905 117.753C128.745 117.307 128.728 116.812 128.857 116.353C128.987 115.895 129.254 115.501 129.613 115.24C129.618 115.235 129.624 115.231 129.63 115.228C129.636 115.225 129.643 115.223 129.65 115.223C129.657 115.223 129.663 115.225 129.67 115.228C129.676 115.231 129.682 115.235 129.686 115.24C129.691 115.246 129.695 115.252 129.698 115.259C129.7 115.266 129.702 115.274 129.702 115.282C129.702 115.289 129.7 115.297 129.698 115.304C129.695 115.311 129.691 115.318 129.686 115.323C129.349 115.568 129.097 115.938 128.976 116.369C128.855 116.8 128.871 117.266 129.021 117.685C129.027 117.7 129.028 117.717 129.023 117.732C129.018 117.747 129.008 117.76 128.995 117.768L128.956 117.792Z" fill="black"/>
<path d="M159.296 125.563C157.274 122.559 154.064 122.861 151.978 123.274L147.848 124.037C147.716 124.06 147.585 124.096 147.459 124.144L146.517 124.469L137.674 127.658L139.808 134.024L142.698 133.626L142.214 134.505L145.048 134.301L160.518 133.392V129.864C160.537 128.319 160.108 126.809 159.296 125.563Z" fill="#263238"/>
<path d="M158.458 130.574C158.458 130.574 156.518 145.207 155.144 146.757C151.87 150.461 139.743 140.274 139.743 140.274L140.119 136.342L150.591 141.202L152.552 128.79L158.458 130.574Z" fill="#EBB373"/>
<path d="M160.052 129.577C159.957 129.937 159.123 140.148 159.123 140.148L150.241 139.215C150.241 139.215 150.703 136.381 151.373 131.439C152.077 126.273 152.483 123.663 154.76 123.245C159.067 122.433 160.052 129.577 160.052 129.577Z" fill="#263238"/>
<path d="M157.075 106.458C158.414 109.102 158.881 110.682 159.002 113.219C159.144 116.178 159.023 118.793 158.436 119.537C157.667 120.509 149.338 121.481 144.668 121.252C144.5 121.252 144.361 119.58 144.361 119.58C144.361 119.58 143.7 121.208 143.497 121.194C142.223 121.131 141.406 121.077 141.406 121.077C141.406 121.077 142.465 118.647 143.757 109.812C144.387 105.506 148.241 103.785 150.509 103.46C154.276 102.935 157.075 106.458 157.075 106.458Z" fill="#263238"/>
<path d="M145.977 114.779C144.755 112.402 143.541 105.997 148.634 104.023C154.989 101.555 157.831 106.113 158.38 110.633C158.928 115.153 156.652 118.565 152.461 118.224C148.271 117.884 146.82 116.426 145.977 114.779Z" fill="#263238"/>
<path d="M154.799 115.099L151.044 118.987L150.336 119.852C150.545 120.445 150.69 121.063 150.768 121.694C150.822 122.361 150.654 123.026 150.297 123.561L149.455 125.718C151.334 124.061 155.615 123.172 155.615 123.172C154.901 120.561 154.624 117.824 154.799 115.099Z" fill="#EBB373"/>
<path opacity="0.2" d="M150.768 121.928C151.779 121.32 152.928 120.236 152.833 118.924C152.81 118.443 152.736 117.967 152.613 117.505L150.483 120.382C150.627 120.884 150.722 121.403 150.768 121.928Z" fill="black"/>
<path d="M155.995 110.808C155.485 114.939 155.347 116.693 153.356 118.769C150.362 121.889 146.012 120.557 145.42 116.412C144.888 112.674 145.809 106.551 149.498 105C150.28 104.638 151.134 104.518 151.971 104.651C152.809 104.784 153.6 105.167 154.262 105.759C154.924 106.351 155.434 107.131 155.738 108.018C156.043 108.906 156.132 109.869 155.995 110.808Z" fill="#EBB373"/>
<path d="M151.312 112.047C151.273 112.465 151.031 112.796 150.772 112.786C150.513 112.776 150.34 112.436 150.366 112.018C150.392 111.6 150.647 111.27 150.906 111.279C151.165 111.289 151.351 111.629 151.312 112.047Z" fill="#263238"/>
<path d="M147.485 111.78C147.446 112.179 147.208 112.494 146.954 112.49C146.699 112.485 146.522 112.149 146.556 111.756C146.591 111.362 146.833 111.041 147.087 111.046C147.342 111.051 147.519 111.372 147.485 111.78Z" fill="#263238"/>
<path d="M151.896 110.541C151.871 110.547 151.845 110.546 151.82 110.54C151.796 110.533 151.773 110.52 151.753 110.502C151.567 110.339 151.351 110.226 151.12 110.172C150.889 110.118 150.651 110.125 150.422 110.191C150.4 110.201 150.376 110.205 150.351 110.204C150.327 110.203 150.303 110.196 150.281 110.185C150.26 110.173 150.24 110.156 150.224 110.135C150.208 110.115 150.196 110.091 150.189 110.064C150.178 110.009 150.187 109.951 150.212 109.903C150.238 109.854 150.279 109.818 150.327 109.802C150.615 109.711 150.917 109.698 151.21 109.763C151.502 109.828 151.777 109.969 152.012 110.176C152.031 110.194 152.045 110.216 152.055 110.241C152.065 110.265 152.07 110.292 152.07 110.32C152.07 110.347 152.065 110.374 152.055 110.398C152.045 110.423 152.031 110.445 152.012 110.463C151.982 110.503 151.941 110.531 151.896 110.541Z" fill="#263238"/>
<path d="M146.262 109.69C146.223 109.667 146.193 109.626 146.18 109.578C146.168 109.526 146.175 109.471 146.2 109.424C146.224 109.378 146.263 109.344 146.31 109.331C146.588 109.229 146.883 109.2 147.172 109.247C147.461 109.295 147.737 109.416 147.977 109.603C147.995 109.62 148.009 109.641 148.018 109.665C148.028 109.689 148.033 109.715 148.033 109.741C148.033 109.767 148.028 109.793 148.018 109.817C148.009 109.841 147.995 109.862 147.977 109.88C147.941 109.916 147.894 109.936 147.846 109.936C147.797 109.936 147.75 109.916 147.714 109.88C147.521 109.736 147.302 109.644 147.073 109.609C146.844 109.575 146.611 109.599 146.392 109.68C146.351 109.701 146.305 109.704 146.262 109.69Z" fill="#263238"/>
<path d="M153.066 106.92C151.839 108.242 152.202 113.505 155.468 114.361C159.3 113.573 156.738 102.988 153.066 106.92Z" fill="#263238"/>
<path d="M148.297 115.692C148.528 116.196 148.728 116.717 148.893 117.252L149.157 117.204C150.34 116.956 150.82 116.397 150.988 115.858C151.066 115.591 151.087 115.308 151.049 115.031C151.03 114.874 150.992 114.72 150.937 114.574C150.379 115.129 149.286 115.454 148.699 115.6C148.453 115.668 148.297 115.692 148.297 115.692Z" fill="#263238"/>
<path d="M148.699 115.6L148.885 116.057C150.003 115.819 150.759 115.483 151.045 115.031C151.026 114.874 150.988 114.72 150.932 114.574C150.379 115.129 149.286 115.454 148.699 115.6Z" fill="white"/>
<path d="M149.157 117.204C150.34 116.956 150.82 116.397 150.988 115.858C150.54 115.962 150.111 116.154 149.723 116.426C149.466 116.611 149.267 116.884 149.157 117.204Z" fill="#DC5753"/>
<path d="M148.53 111.532C148.123 112.505 147.607 113.416 146.997 114.244C147.429 114.779 148.293 114.555 148.293 114.555L148.53 111.532Z" fill="#E4873E"/>
<path d="M150.181 111.041L151.019 111.313C150.613 111.78 150.181 111.041 150.181 111.041Z" fill="#263238"/>
<path d="M146.405 110.808L147.239 111.08C146.837 111.537 146.405 110.808 146.405 110.808Z" fill="#263238"/>
<path d="M149.563 104.087C148.081 104.573 146.422 107.319 146.107 108.397C148.159 108.883 153.827 106.993 153.827 106.993C153.827 106.993 157.503 108.344 155.701 106.123C153.9 103.902 149.563 104.087 149.563 104.087Z" fill="#263238"/>
<path d="M156.971 114.21C156.547 114.952 155.879 115.476 155.114 115.668C154.129 115.892 153.697 114.098 154.073 113.019C154.249 112.532 154.575 112.131 154.991 111.891C155.407 111.65 155.886 111.585 156.341 111.707C157.248 111.994 157.507 113.277 156.971 114.21Z" fill="#EBB373"/>
<path d="M139.864 120.684L139.752 120.475C141.134 119.541 142.452 115.911 143.014 114.361C143.576 112.631 143.971 110.839 144.193 109.015L144.409 109.058C144.181 110.893 143.78 112.695 143.212 114.434C142.595 116.154 141.307 119.707 139.864 120.684Z" fill="#263238"/>
<path d="M154.824 115.571C154.818 115.724 154.851 115.875 154.921 116.006C154.991 116.138 155.094 116.242 155.217 116.308C155.34 116.373 155.478 116.396 155.612 116.373C155.747 116.35 155.872 116.283 155.973 116.181C156.073 116.078 156.144 115.943 156.177 115.795C156.21 115.646 156.203 115.49 156.157 115.347C156.11 115.203 156.027 115.077 155.918 114.987C155.808 114.896 155.677 114.844 155.542 114.837C155.452 114.832 155.362 114.847 155.277 114.881C155.192 114.915 155.114 114.968 155.047 115.036C154.98 115.104 154.926 115.186 154.888 115.278C154.85 115.37 154.828 115.469 154.824 115.571Z" fill="#6D61F2"/>
<path opacity="0.1" d="M154.777 114.21C154.763 114.209 154.749 114.204 154.736 114.197C154.724 114.19 154.712 114.18 154.703 114.168C154.694 114.155 154.687 114.141 154.682 114.126C154.678 114.111 154.676 114.095 154.678 114.079C154.693 113.87 154.75 113.668 154.845 113.488C154.94 113.308 155.07 113.155 155.225 113.039C155.38 112.924 155.556 112.849 155.74 112.821C155.925 112.794 156.112 112.813 156.289 112.878C156.316 112.889 156.338 112.912 156.351 112.941C156.364 112.97 156.366 113.003 156.358 113.034C156.354 113.049 156.347 113.064 156.337 113.076C156.328 113.088 156.316 113.098 156.304 113.106C156.291 113.113 156.277 113.117 156.262 113.118C156.248 113.119 156.233 113.117 156.22 113.112C156.076 113.057 155.922 113.041 155.771 113.062C155.62 113.084 155.476 113.144 155.348 113.238C155.221 113.331 155.114 113.456 155.035 113.602C154.956 113.749 154.908 113.913 154.894 114.084C154.894 114.101 154.892 114.118 154.886 114.134C154.88 114.15 154.872 114.164 154.861 114.176C154.85 114.188 154.836 114.198 154.822 114.203C154.808 114.209 154.792 114.211 154.777 114.21Z" fill="black"/>
<path d="M144.24 139.064L140.119 136.342L138.996 134.724C138.996 134.724 137.838 133.188 136.905 133.086C136.437 133.069 135.971 133.179 135.549 133.407C135.549 133.407 134.469 134.175 135.117 135.351C135.117 135.351 134.05 135.968 134.775 137.295C134.775 137.295 133.751 137.319 134.628 138.525C134.966 138.98 135.382 139.356 135.851 139.628C136.32 139.9 136.833 140.063 137.359 140.109C137.967 140.173 138.58 140.113 139.169 139.929L143.718 143.292L144.24 139.064Z" fill="#EBB373"/>
<path d="M151.019 133.966L151.762 128.722L149.494 134.024L151.019 133.966Z" fill="black"/>
<path d="M142.698 133.626L144.551 129.393L140.992 133.864L142.698 133.626Z" fill="black"/>
</svg>
