<svg width="26" height="26" viewBox="0 0 26 26" fill="none" xmlns="http://www.w3.org/2000/svg">
<rect width="26" height="26" rx="10" fill="white"/>
<path d="M15.1718 15.855C15.3487 15.855 15.5193 15.7894 15.6506 15.6708C16.1361 15.2324 15.826 14.4262 15.1718 14.4262H6.37329C6.06159 14.426 5.75291 14.4814 5.46491 14.5891C5.1769 14.6967 4.91522 14.8546 4.69481 15.0536C4.4744 15.2527 4.29959 15.489 4.18037 15.7491C4.06115 16.0092 3.99986 16.288 4 16.5695V17.1191C4 17.9688 4.33753 18.7918 4.94932 19.4386C6.3249 20.8937 8.30152 21.7353 10.8413 21.9757C11.1309 22.0032 11.3699 21.7632 11.4479 21.4829C11.5722 21.032 11.2452 20.584 10.7804 20.5319C8.73825 20.303 7.2062 19.6255 6.15178 18.5108C5.7845 18.123 5.58253 17.6295 5.58219 17.1191V16.5685C5.58247 16.3792 5.66594 16.1977 5.81427 16.064C5.9626 15.9302 6.16366 15.855 6.37329 15.855H15.1718ZM12.4352 3C13.1278 3 13.8136 3.1232 14.4535 3.36255C15.0933 3.60191 15.6747 3.95274 16.1645 4.39502C16.6542 4.83729 17.0427 5.36235 17.3077 5.94021C17.5728 6.51807 17.7092 7.13742 17.7092 7.76289C17.7092 8.38836 17.5728 9.00771 17.3077 9.58557C17.0427 10.1634 16.6542 10.6885 16.1645 11.1308C15.6747 11.573 15.0933 11.9239 14.4535 12.1632C13.8136 12.4026 13.1278 12.5258 12.4352 12.5258C11.0365 12.5258 9.695 12.024 8.70593 11.1308C7.71687 10.2375 7.16122 9.02609 7.16122 7.76289C7.16122 6.49969 7.71687 5.28823 8.70593 4.39502C9.695 3.5018 11.0365 3 12.4352 3ZM12.4352 4.42887C11.9504 4.42887 11.4703 4.5151 11.0224 4.68265C10.5745 4.8502 10.1675 5.09579 9.82471 5.40538C9.4819 5.71497 9.20996 6.08251 9.02443 6.48701C8.8389 6.89152 8.74341 7.32506 8.74341 7.76289C8.74341 8.20072 8.8389 8.63426 9.02443 9.03876C9.20996 9.44327 9.4819 9.81081 9.82471 10.1204C10.1675 10.43 10.5745 10.6756 11.0224 10.8431C11.4703 11.0107 11.9504 11.0969 12.4352 11.0969C13.4143 11.0969 14.3533 10.7456 15.0457 10.1204C15.738 9.49515 16.127 8.64713 16.127 7.76289C16.127 6.87865 15.738 6.03063 15.0457 5.40538C14.3533 4.78013 13.4143 4.42887 12.4352 4.42887ZM19.9242 13.1592L13.6978 18.7814C13.335 19.1091 13.0776 19.5197 12.9531 19.9692L12.47 21.7134C12.422 21.8869 12.4245 22.0687 12.4774 22.2411C12.5303 22.4135 12.6318 22.5706 12.7719 22.697C12.912 22.8234 13.086 22.9149 13.2769 22.9626C13.4678 23.0102 13.6692 23.0124 13.8613 22.9689L15.7916 22.5336C16.2899 22.421 16.7449 22.1882 17.1079 21.8601L23.3333 16.238C23.768 15.8265 24.0072 15.2778 23.9998 14.7092C23.9924 14.1406 23.739 13.5971 23.2938 13.195C22.8485 12.7929 22.2467 12.564 21.6171 12.5573C20.9874 12.5507 20.3798 12.7667 19.9242 13.1592Z" fill="#6D61F2"/>
</svg>
