<svg width="20" height="21" viewBox="0 0 20 21" fill="none" xmlns="http://www.w3.org/2000/svg">
<path d="M17.75 2.36249C17.4892 2.08861 17.1795 1.87136 16.8388 1.72314C16.498 1.57492 16.1328 1.49863 15.7639 1.49863C15.3951 1.49863 15.0298 1.57492 14.689 1.72314C14.3483 1.87136 14.0386 2.08861 13.7778 2.36249L3.21569 13.4527C2.90141 13.7827 2.67284 14.1922 2.55355 14.6422L1.44855 18.786C1.42302 18.882 1.42227 18.9835 1.44638 19.08C1.47048 19.1764 1.51858 19.2644 1.58574 19.3349C1.6529 19.4055 1.73671 19.456 1.82857 19.4813C1.92044 19.5066 2.01707 19.5058 2.10855 19.479L6.05426 18.3187C6.48279 18.1928 6.8732 17.9531 7.18784 17.6227L17.75 6.53249C18.2765 5.97946 18.5723 5.22948 18.5723 4.44749C18.5723 3.66549 18.2765 2.91551 17.75 2.36249ZM14.5357 3.15749C14.8615 2.81546 15.3034 2.62335 15.7642 2.62342C16.2249 2.62349 16.6667 2.81573 16.9925 3.15786C17.3182 3.49999 17.5012 3.96398 17.5011 4.44775C17.5011 4.93152 17.318 5.39546 16.9921 5.73749L15.8921 6.89174L13.4357 4.31174L14.5357 3.15749ZM12.6786 5.10749L15.1357 7.68749L6.42998 16.8277C6.24559 17.0214 6.01681 17.1619 5.76569 17.2357L2.73641 18.126L3.58426 14.946C3.65472 14.6824 3.78852 14.4422 3.97284 14.2485L12.6786 5.10749Z" fill="#6E80B0"/>
</svg>
