<svg width="26" height="26" viewBox="0 0 26 26" fill="none" xmlns="http://www.w3.org/2000/svg">
<rect width="26" height="26" rx="10" fill="white"/>
<path d="M7.16666 13L10.5 9.66667M7.16666 13L10.5 16.3333M7.16666 13H15.5M11.3333 20.5C12.3182 20.5 13.2935 20.306 14.2035 19.9291C15.1134 19.5522 15.9402 18.9997 16.6366 18.3033C17.3331 17.6069 17.8855 16.7801 18.2624 15.8701C18.6393 14.9602 18.8333 13.9849 18.8333 13C18.8333 12.0151 18.6393 11.0398 18.2624 10.1299C17.8855 9.21993 17.3331 8.39314 16.6366 7.6967C15.9402 7.00026 15.1134 6.44781 14.2035 6.0709C13.2935 5.69399 12.3182 5.5 11.3333 5.5" stroke="#6D61F2" stroke-linecap="round" stroke-linejoin="round"/>
</svg>
