<svg width="299" height="282" viewBox="0 0 299 282" fill="none" xmlns="http://www.w3.org/2000/svg">
<path d="M163.746 263.441H133.101H79.4744C58.8723 263.441 39.7364 253.396 28.8892 236.887L15.3162 216.229C4.21483 199.334 10.8747 177.101 29.7119 168.173C46.7489 160.097 54.1173 140.878 46.4928 124.403L41.0654 112.676C33.043 95.3405 36.7318 75.1692 50.4485 61.3661L74.2568 37.4079C99.4379 12.0682 141.877 11.4147 167.923 35.9657L197.639 63.9762C201.499 67.6145 207.5 68.2872 212.157 65.6035C219.635 61.2951 229.312 65.8885 230.09 74.116L233.778 113.064C234.589 121.633 238.705 129.617 245.999 134.787C260.389 144.986 280.24 157.55 283.871 165.911C309.464 224.833 231.297 263.441 163.746 263.441Z" fill="#E7E8FF"/>
<path d="M29.1056 218.569C52.3894 229.463 62.0711 252.709 63.6964 263.132H54.9675C35.4152 250.294 28.2357 230.285 26.9663 219.955C26.8287 218.835 28.0347 218.068 29.1056 218.569Z" fill="#032068"/>
<path d="M35.3688 185.586C61.5144 197.551 69.1906 241.8 69.7395 262.816H57.9891C30.8617 225.886 30.0299 197.524 33.3035 186.44C33.5521 185.598 34.5353 185.204 35.3688 185.586Z" fill="white"/>
<path fill-rule="evenodd" clip-rule="evenodd" d="M34.0846 186.645C34.1909 186.284 34.6147 186.091 35.0149 186.274C47.778 192.114 56.1429 205.908 61.3821 221.044C66.4797 235.772 68.553 251.583 68.9053 262.05H58.4142C31.6186 225.412 30.9028 197.418 34.0846 186.645ZM35.7227 184.898C34.4559 184.318 32.9132 184.911 32.5224 186.235C29.1665 197.597 30.1003 226.192 57.3226 263.251L57.5644 263.58H70.5704L70.5499 262.797C70.2741 252.231 68.2089 235.839 62.9236 220.569C57.6511 205.336 49.1051 191.022 35.7227 184.898Z" fill="#032068"/>
<path fill-rule="evenodd" clip-rule="evenodd" d="M36.7494 194.687L47.5111 222.092L41.204 219.373L40.53 220.765L48.3059 224.116L58.0632 248.963L52.5813 246.906L51.9819 248.327L58.8212 250.893L63.6074 263.081L65.1281 262.55L55.4202 237.828L60.4074 227.348L58.9279 226.722L54.6165 235.782L44.0851 208.964L46.6782 200.979L45.1276 200.53L43.1568 206.6L38.2701 194.156L36.7494 194.687Z" fill="#032068"/>
<path d="M232.468 45.1215L235.545 42.1198C236.093 41.5852 237.046 42.0279 236.931 42.7634L236.297 46.7964C236.258 47.0404 236.347 47.2869 236.535 47.4584L239.937 50.5592C240.484 51.0587 240.065 51.9303 239.306 51.8712L234.541 51.5C234.309 51.4819 234.08 51.5585 233.913 51.7103L230.122 55.1411C229.559 55.6506 228.633 55.1898 228.761 54.4639L229.569 49.8817C229.609 49.6584 229.541 49.4302 229.385 49.2585L225.897 45.422C225.384 44.8578 225.94 44.0048 226.706 44.1815L231.693 45.3328C231.973 45.3975 232.268 45.317 232.468 45.1215ZM251.672 93.3549L253.012 92.8822C253.749 92.6214 254.408 93.4073 253.969 94.0245L253.195 95.1111C253.05 95.316 253.018 95.5745 253.109 95.8058L253.717 97.3361C253.985 98.0091 253.209 98.6267 252.55 98.2657L251.008 97.4197C250.807 97.3098 250.565 97.2863 250.345 97.3558L248.45 97.949C247.71 98.1811 247.084 97.3897 247.529 96.7862L248.557 95.3969C248.694 95.2117 248.737 94.9776 248.674 94.7595L248.145 92.9199C247.939 92.2024 248.83 91.6574 249.441 92.1272L250.876 93.2314C251.099 93.4032 251.403 93.4503 251.672 93.3549ZM35.5243 126.498L33.2507 129.299C33.1123 129.469 32.8867 129.551 32.6657 129.511L29.8556 129.005C29.2511 128.896 28.8863 129.627 29.3529 130.012L31.5614 131.837C31.7227 131.97 31.7988 132.175 31.7618 132.376L31.2077 135.385C31.1036 135.951 31.8275 136.302 32.2375 135.884L34.5061 133.571C34.6393 133.436 34.8324 133.37 35.0248 133.395L37.6503 133.739C38.2418 133.817 38.5767 133.108 38.127 132.73L36.1744 131.091C36.0175 130.959 35.9427 130.759 35.9763 130.561L36.592 126.947C36.6927 126.356 35.9075 126.025 35.5243 126.498Z" fill="#F4AD5E"/>
<path d="M62.6301 49.3362C62.6301 44.2681 66.9863 40.1596 72.3599 40.1596H183.052C188.425 40.1596 192.781 44.2681 192.781 49.3362V253.469C192.781 258.538 188.425 262.646 183.052 262.646H72.3599C66.9864 262.646 62.6301 258.538 62.6301 253.469V49.3362Z" fill="white"/>
<path fill-rule="evenodd" clip-rule="evenodd" d="M61.8194 49.3362C61.8194 43.8458 66.5386 39.395 72.3599 39.395H183.052C188.873 39.395 193.592 43.8458 193.592 49.3362V253.469C193.592 258.96 188.873 263.411 183.052 263.411H72.3599C66.5386 263.411 61.8194 258.96 61.8194 253.469V49.3362ZM72.3599 40.9244C67.4342 40.9244 63.441 44.6905 63.441 49.3362V253.469C63.441 258.116 67.4342 261.881 72.3599 261.881H183.052C187.977 261.881 191.97 258.116 191.97 253.469V49.3362C191.97 44.6905 187.977 40.9244 183.052 40.9244H72.3599Z" fill="#032068"/>
<path d="M101.826 47.6188L97.6082 40.1593H157.803L152.844 47.9545C151.379 50.2578 148.74 51.6672 145.891 51.6672H108.981C105.987 51.6672 103.236 50.1106 101.826 47.6188Z" fill="#032068"/>
<path d="M191.186 44.7625H63.3968C67.6266 40.7731 71.6668 40.0315 73.1581 40.1593H181.424C186.63 40.1593 190.1 43.2281 191.186 44.7625ZM191.124 258.284H64.2883C68.6841 262.337 71.2247 263.091 72.7745 262.961H182.637C188.047 262.961 189.997 259.842 191.124 258.284Z" fill="#032068"/>
<path d="M77.551 66.1461C77.551 64.8791 78.64 63.852 79.9834 63.852H121.542C122.885 63.852 123.974 64.8791 123.974 66.1461V66.249C123.974 67.516 122.885 68.5431 121.542 68.5431H79.9834C78.64 68.5431 77.551 67.516 77.551 66.249V66.1461Z" fill="#6D61F2"/>
<path fill-rule="evenodd" clip-rule="evenodd" d="M76.4139 81.5877C76.4139 79.8983 77.866 78.5288 79.6572 78.5288H176.143C177.935 78.5288 179.386 79.8983 179.386 81.5877V164.941C179.386 166.63 177.935 168 176.143 168H79.6572C77.866 168 76.4139 166.63 76.4139 164.941V81.5877ZM79.6572 80.0582C78.7616 80.0582 78.0356 80.743 78.0356 81.5877V164.941C78.0356 165.786 78.7616 166.47 79.6572 166.47H176.143C177.039 166.47 177.764 165.786 177.764 164.941V81.5877C177.764 80.743 177.039 80.0582 176.143 80.0582H79.6572Z" fill="#E7E8FF"/>
<path d="M102.36 226.735C102.36 225.467 103.449 224.441 104.793 224.441H151.008C152.351 224.441 153.441 225.467 153.441 226.735V238.971C153.441 240.237 152.351 241.264 151.008 241.264H104.793C103.449 241.264 102.36 240.237 102.36 238.971V226.735Z" fill="#6D61F2"/>
<path fill-rule="evenodd" clip-rule="evenodd" d="M183.644 51.0919V57.3468H182.022V51.0919H183.644ZM179.5 51.8738V57.3468H177.878V51.8738H179.5ZM175.355 53.4375V57.3468H173.733V53.4375H175.355ZM171.209 55.0012V57.3468H169.588V55.0012H171.209Z" fill="#032068"/>
<path d="M77.2247 124.411H179.386V132.823H77.2247V124.411Z" fill="#E7E8FF"/>
<path d="M99.9278 79.2936H108.846V125.941H99.9278V79.2936ZM144.522 129H153.441V167.235H144.522V129Z" fill="#E7E8FF"/>
<path fill-rule="evenodd" clip-rule="evenodd" d="M129.118 131.014C131.989 131.014 144.55 110.114 144.55 102.141C144.55 94.1683 137.641 87.7054 129.118 87.7054C120.595 87.7054 113.686 94.1683 113.686 102.141C113.686 110.114 125.17 131.014 129.118 131.014ZM129.118 109.715C133.484 109.715 137.022 106.377 137.022 102.26C137.022 98.1426 133.484 94.8056 129.118 94.8056C124.753 94.8056 121.214 98.1426 121.214 102.26C121.214 106.377 124.753 109.715 129.118 109.715Z" fill="#6D61F2"/>
<path d="M109.872 210.965C109.872 214.184 107.105 216.794 103.692 216.794C100.279 216.794 97.5116 214.184 97.5116 210.965C97.5116 207.746 100.279 205.136 103.692 205.136C107.105 205.136 109.872 207.746 109.872 210.965Z" fill="white"/>
<path fill-rule="evenodd" clip-rule="evenodd" d="M103.692 205.9C100.726 205.9 98.3225 208.168 98.3225 210.965C98.3225 213.762 100.726 216.029 103.692 216.029C106.657 216.029 109.061 213.762 109.061 210.965C109.061 208.168 106.657 205.9 103.692 205.9ZM96.7008 210.965C96.7008 207.324 99.8311 204.371 103.692 204.371C107.552 204.371 110.683 207.324 110.683 210.965C110.683 214.607 107.552 217.558 103.692 217.558C99.8311 217.558 96.7008 214.607 96.7008 210.965Z" fill="#032068"/>
<path d="M157.547 210.965C157.547 214.184 154.978 216.794 151.808 216.794C148.639 216.794 146.069 214.184 146.069 210.965C146.069 207.746 148.639 205.136 151.808 205.136C154.978 205.136 157.547 207.746 157.547 210.965Z" fill="white"/>
<path fill-rule="evenodd" clip-rule="evenodd" d="M151.808 205.9C149.142 205.9 146.881 208.114 146.881 210.965C146.881 213.816 149.142 216.029 151.808 216.029C154.474 216.029 156.737 213.816 156.737 210.965C156.737 208.114 154.474 205.9 151.808 205.9ZM145.259 210.965C145.259 207.378 148.136 204.371 151.808 204.371C155.481 204.371 158.358 207.378 158.358 210.965C158.358 214.552 155.481 217.558 151.808 217.558C148.136 217.558 145.259 214.552 145.259 210.965Z" fill="#032068"/>
<path d="M158.372 210.103C157.686 206.969 154.807 204.617 151.361 204.617C147.914 204.617 145.036 206.969 144.349 210.103H111.186C110.498 206.969 107.62 204.617 104.174 204.617C100.727 204.617 97.8491 206.969 97.1621 210.103C96.0647 210.103 93.7804 209.93 93.422 209.237C92.974 208.371 91.604 198.699 92.5271 197.4C94.1683 195.089 107.907 193.358 109.102 193.069C110.875 189.816 114.393 183.423 115.444 181.726C115.563 181.533 115.497 181.281 115.292 181.169C114.579 180.782 114.87 179.742 115.694 179.735C118.786 179.704 122.35 179.643 124.93 179.643C130.903 179.643 148.973 178.922 150.167 179.643C151.361 180.365 152.108 179.933 153.153 184.264C154.198 188.594 154.795 192.203 155.99 193.502C157.185 194.801 158.678 194.946 159.275 197.4C159.872 199.853 161.217 208.804 161.067 209.67C160.321 209.815 159.221 210.248 158.372 210.103Z" fill="white"/>
<path fill-rule="evenodd" clip-rule="evenodd" d="M132.74 180.273C129.578 180.345 126.713 180.409 124.93 180.409C123.194 180.409 121.015 180.436 118.829 180.462C117.772 180.475 116.714 180.488 115.703 180.499C115.702 180.501 115.701 180.503 115.7 180.504C115.7 180.505 115.7 180.507 115.7 180.508C116.306 180.839 116.48 181.567 116.145 182.111C115.108 183.786 111.603 190.154 109.823 193.419L109.656 193.725L109.303 193.81C109.052 193.87 108.367 193.979 107.45 194.125C107.119 194.178 106.757 194.235 106.376 194.296C104.898 194.535 103.029 194.849 101.151 195.225C99.2666 195.601 97.3943 196.036 95.9018 196.514C95.1545 196.752 94.5241 196.995 94.0429 197.237C93.5397 197.49 93.2918 197.697 93.2007 197.825C93.2008 197.825 93.2006 197.826 93.2001 197.827C93.1931 197.843 93.133 197.979 93.0872 198.337C93.0428 198.683 93.0226 199.136 93.0254 199.672C93.0308 200.741 93.1269 202.073 93.2673 203.405C93.4073 204.736 93.5898 206.052 93.7641 207.085C93.8514 207.602 93.9356 208.042 94.0103 208.374C94.0478 208.542 94.0813 208.674 94.1101 208.774C94.1229 208.818 94.1331 208.849 94.1403 208.871C94.1646 208.887 94.2185 208.92 94.3222 208.962C94.5255 209.044 94.8129 209.118 95.1608 209.177C95.6101 209.255 96.1029 209.299 96.5345 209.322C97.5216 206.167 100.558 203.853 104.174 203.853C107.796 203.853 110.837 206.176 111.819 209.338H143.716C144.698 206.176 147.738 203.853 151.361 203.853C154.989 203.853 158.032 206.182 159.009 209.351C159.174 209.332 159.359 209.299 159.567 209.252C159.764 209.206 159.959 209.155 160.161 209.101L160.231 209.082C160.238 209.081 160.244 209.079 160.251 209.078C160.25 209.067 160.249 209.057 160.249 209.046C160.226 208.728 160.185 208.31 160.128 207.814C160.015 206.826 159.843 205.557 159.648 204.236C159.256 201.58 158.775 198.761 158.485 197.571C158.227 196.508 157.797 195.995 157.316 195.587C157.122 195.422 156.927 195.282 156.705 195.121C156.616 195.058 156.524 194.99 156.424 194.916C156.091 194.67 155.726 194.383 155.377 194.003C154.99 193.581 154.688 193.016 154.434 192.394C154.176 191.764 153.947 191.021 153.73 190.206C153.471 189.238 153.215 188.117 152.94 186.915C152.758 186.116 152.568 185.282 152.362 184.433C151.84 182.27 151.424 181.461 151.096 181.092C150.95 180.929 150.807 180.836 150.607 180.735C150.56 180.711 150.5 180.683 150.429 180.65C150.247 180.564 149.999 180.447 149.77 180.312C149.753 180.307 149.703 180.294 149.607 180.277C149.443 180.249 149.214 180.222 148.916 180.199C148.323 180.151 147.517 180.121 146.545 180.104C144.605 180.07 142.06 180.093 139.355 180.138C137.175 180.174 134.889 180.225 132.74 180.273ZM92.6933 209.572C92.5855 209.363 92.4978 209.021 92.4238 208.691C92.3415 208.325 92.2524 207.857 92.1627 207.325C91.983 206.26 91.7966 204.914 91.6536 203.556C91.5108 202.201 91.4096 200.816 91.4037 199.679C91.4008 199.113 91.4215 198.589 91.4773 198.154C91.5278 197.759 91.6209 197.301 91.8535 196.974C92.1727 196.525 92.7132 196.172 93.2801 195.888C93.8692 195.591 94.5906 195.318 95.381 195.065C96.9634 194.558 98.9082 194.109 100.814 193.728C102.724 193.346 104.617 193.028 106.102 192.788C106.555 192.716 106.962 192.651 107.319 192.595C107.856 192.509 108.277 192.442 108.559 192.394C110.286 189.23 113.389 183.594 114.576 181.616C113.555 180.727 114.179 178.984 115.685 178.969C116.686 178.959 117.738 178.947 118.792 178.934C120.985 178.906 123.184 178.879 124.93 178.879C126.698 178.879 129.524 178.815 132.664 178.745C134.816 178.697 137.116 178.645 139.326 178.608C142.034 178.563 144.603 178.541 146.575 178.575C147.558 178.592 148.406 178.623 149.053 178.674C149.374 178.701 149.661 178.732 149.898 178.773C150.094 178.807 150.381 178.865 150.604 178.999C150.773 179.102 150.899 179.161 151.055 179.234C151.146 179.276 151.248 179.324 151.373 179.387C151.683 179.544 152.015 179.748 152.337 180.108C152.94 180.785 153.421 181.926 153.944 184.093C154.159 184.987 154.354 185.838 154.536 186.639C154.804 187.813 155.047 188.882 155.302 189.832C155.513 190.624 155.723 191.298 155.946 191.845C156.174 192.4 156.394 192.774 156.603 193.001C156.851 193.272 157.122 193.489 157.424 193.712C157.495 193.765 157.571 193.82 157.65 193.877C157.888 194.05 158.154 194.242 158.398 194.448C159.111 195.051 159.727 195.837 160.066 197.229C160.374 198.492 160.863 201.375 161.255 204.025C161.451 205.355 161.624 206.64 161.74 207.651C161.798 208.155 161.842 208.596 161.867 208.943C161.889 209.253 161.905 209.581 161.868 209.793L161.778 210.314L161.23 210.419C161.076 210.449 160.895 210.495 160.67 210.555C160.647 210.561 160.624 210.568 160.6 210.574C160.402 210.627 160.176 210.686 159.949 210.738C159.456 210.85 158.829 210.958 158.229 210.856L157.69 210.764L157.579 210.258C156.965 207.459 154.402 205.382 151.361 205.382C148.32 205.382 145.757 207.459 145.143 210.258L145.009 210.867H110.525L110.392 210.258C109.778 207.459 107.214 205.382 104.174 205.382C101.133 205.382 98.5696 207.459 97.9561 210.258L97.8224 210.867H97.1621C96.5807 210.867 95.6839 210.822 94.869 210.682C94.4639 210.613 94.0444 210.513 93.6843 210.367C93.3569 210.236 92.9154 210.002 92.6933 209.572Z" fill="#032068"/>
<path d="M158.978 209.299C158.283 206.463 155.366 204.336 151.875 204.336C148.383 204.336 145.467 206.463 144.771 209.299L143.554 209.251C143.806 207.046 145.822 202.638 151.875 202.638C157.927 202.638 159.944 207.079 160.196 209.299H158.978ZM111.17 209.299C110.475 206.463 107.558 204.336 104.067 204.336C100.575 204.336 97.6584 206.463 96.9623 209.299C96.6344 209.299 96.202 209.286 95.7458 209.251C95.9977 207.046 98.0145 202.638 104.067 202.638C110.119 202.638 112.136 207.079 112.388 209.299H111.17Z" fill="#032068"/>
<path d="M107.223 210.965C107.223 212.805 105.84 214.296 104.133 214.296C102.426 214.296 101.043 212.805 101.043 210.965C101.043 209.126 102.426 207.634 104.133 207.634C105.84 207.634 107.223 209.126 107.223 210.965ZM154.899 210.965C154.899 212.805 153.317 214.296 151.367 214.296C149.416 214.296 147.836 212.805 147.836 210.965C147.836 209.126 149.416 207.634 151.367 207.634C153.317 207.634 154.899 209.126 154.899 210.965ZM93.7526 209.299H95.8754C96.0935 207.576 97.057 205.806 97.5116 205.136H93.7526C92.4532 205.136 91.4349 206.19 91.5548 207.41C91.6599 208.481 92.6125 209.299 93.7526 209.299ZM160.411 209.299H159.278C159.047 207.576 158.028 205.806 157.547 205.136H160.411C161.714 205.136 162.735 206.197 162.607 207.421C162.497 208.486 161.546 209.299 160.411 209.299Z" fill="#032068"/>
<path d="M93.98 201.806C93.98 203.185 93.5847 204.303 93.0971 204.303C92.6096 204.303 92.2143 203.185 92.2143 201.806C92.2143 200.426 92.6096 199.307 93.0971 199.307C93.5847 199.307 93.98 200.426 93.98 201.806ZM161.079 202.638C161.079 203.558 160.684 204.303 160.196 204.303C159.708 204.303 159.313 203.558 159.313 202.638C159.313 201.718 159.708 200.973 160.196 200.973C160.684 200.973 161.079 201.718 161.079 202.638Z" fill="#F4AD5E"/>
<path d="M114.642 194.311H130.361C131.705 194.311 132.793 193.284 132.793 192.017V185.064C132.793 183.825 131.751 182.808 130.438 182.777C125.245 182.654 117.715 182.551 117.201 182.839C116.752 183.091 114.413 187.354 112.473 191.023C111.671 192.539 112.846 194.311 114.642 194.311ZM135.192 192.017V185.055C135.192 183.819 136.23 182.805 137.54 182.77C142.056 182.65 148.233 182.557 148.535 182.839C148.823 183.107 149.577 187.925 150.123 191.728C150.32 193.099 149.187 194.311 147.721 194.311H137.625C136.281 194.311 135.192 193.284 135.192 192.017Z" fill="white"/>
<path fill-rule="evenodd" clip-rule="evenodd" d="M117.489 183.549C117.489 183.549 117.492 183.548 117.5 183.546C117.493 183.548 117.489 183.549 117.489 183.549ZM117.632 183.526C117.674 183.521 117.724 183.515 117.784 183.51C118.024 183.488 118.362 183.469 118.785 183.455C119.629 183.427 120.769 183.417 122.064 183.418C124.65 183.424 127.823 183.48 130.417 183.542C131.288 183.562 131.983 184.236 131.983 185.064V192.018C131.983 192.862 131.257 193.547 130.361 193.547H114.642C113.442 193.547 112.668 192.366 113.198 191.364C114.168 189.532 115.234 187.557 116.111 186.011C116.55 185.236 116.939 184.577 117.241 184.101C117.393 183.862 117.517 183.679 117.611 183.554C117.619 183.544 117.626 183.535 117.632 183.526ZM117.712 183.429C117.717 183.424 117.719 183.421 117.719 183.422C117.719 183.422 117.717 183.424 117.712 183.429ZM122.067 181.889C124.671 181.895 127.858 181.951 130.458 182.013C132.216 182.055 133.604 183.413 133.604 185.064V192.018C133.604 193.707 132.152 195.076 130.361 195.076H114.642C112.25 195.076 110.674 192.711 111.747 190.682C112.719 188.845 113.792 186.854 114.681 185.289C115.125 184.507 115.528 183.824 115.851 183.315C116.011 183.062 116.158 182.842 116.286 182.671C116.35 182.587 116.417 182.504 116.483 182.43C116.536 182.374 116.642 182.263 116.787 182.181C116.956 182.087 117.144 182.053 117.228 182.039C117.346 182.017 117.482 182.001 117.626 181.988C117.916 181.96 118.291 181.941 118.727 181.927C119.602 181.897 120.766 181.887 122.067 181.889ZM148.8 182.107C148.858 182.13 148.987 182.184 149.105 182.295C149.253 182.433 149.325 182.603 149.346 182.656L149.348 182.659C149.384 182.744 149.416 182.84 149.444 182.935C149.501 183.126 149.561 183.371 149.623 183.652C149.745 184.217 149.886 184.976 150.033 185.836C150.327 187.559 150.653 189.722 150.927 191.626C151.19 193.459 149.673 195.076 147.721 195.076H137.625C135.834 195.076 134.382 193.707 134.382 192.018V185.055C134.382 183.408 135.765 182.053 137.517 182.006C139.779 181.945 142.46 181.892 144.617 181.889C145.694 181.887 146.651 181.898 147.361 181.929C147.714 181.944 148.023 181.963 148.261 181.992C148.379 182.005 148.499 182.023 148.608 182.049C148.662 182.061 148.73 182.08 148.8 182.107ZM144.619 183.418C142.483 183.421 139.818 183.475 137.563 183.534C136.695 183.558 136.003 184.23 136.003 185.055V192.018C136.003 192.862 136.729 193.547 137.625 193.547H147.721C148.701 193.547 149.45 192.738 149.32 191.831C149.047 189.932 148.723 187.784 148.432 186.08C148.286 185.226 148.15 184.493 148.034 183.961C147.993 183.775 147.956 183.619 147.924 183.496C147.76 183.48 147.548 183.467 147.289 183.456C146.616 183.428 145.689 183.417 144.619 183.418ZM147.842 183.224C147.842 183.225 147.842 183.225 147.843 183.226C147.832 183.207 147.833 183.202 147.842 183.224Z" fill="#032068"/>
<path d="M227.37 146.117L231.31 155.178C231.31 157.924 229.647 163.414 222.991 163.414C216.335 163.414 212.336 159.845 211.169 158.061V151.06C208.979 151.06 206.352 148.177 205.038 146.117C203.725 144.059 197.594 131.703 204.601 123.879C211.606 116.054 221.239 121.409 227.37 128.821C232.274 134.751 229.413 142.823 227.37 146.117Z" fill="#D3766A"/>
<path d="M281.666 262.664H239.631H188.837C180.956 252.78 175.701 179.475 180.517 171.651C188.123 159.296 203.287 156.413 210.293 154.766C211.46 156.825 214.846 159.296 220.802 159.296C226.757 159.296 230.581 155.178 231.748 153.118C240.214 154.629 259.246 159.379 267.654 166.297C278.163 174.945 286.044 214.069 289.11 238.779C291.562 258.546 285.169 262.939 281.666 262.664Z" fill="#6D61F2"/>
<path d="M247.074 255.251C255.831 251.957 266.486 234.385 270.719 226.012C267.362 237.954 254.079 260.702 244.009 258.958C230.697 256.651 210.438 230.267 201.974 217.364C213.357 231.365 238.316 258.546 247.074 255.251Z" fill="#032068"/>
<path d="M230.873 249.485C240.33 244.873 252.62 246.191 257.583 247.427C255.685 250.859 250.577 257.557 245.323 256.898C240.068 256.239 233.5 251.682 230.873 249.485ZM239.192 210.363L244.008 196.36L236.565 208.303C230.61 206.656 221.678 202.538 211.169 200.478C220.802 203.773 238.9 213.382 249.262 219.011L239.192 210.363Z" fill="#032068"/>
<path d="M205.476 197.596C205.827 198.254 207.665 200.616 208.542 201.714L202.411 211.598C201.892 210.912 200.417 209.292 198.665 208.303C196.476 207.068 189.713 205.833 189.713 200.89C189.713 196.937 192.632 193.752 194.092 192.654C191.757 190.32 186.648 186.476 186.648 185.241C186.648 184.32 187.085 182.77 188.837 183.182C190.589 183.594 196.719 190.183 198.033 190.594C199.346 191.007 202.849 190.594 204.162 191.419C205.476 192.242 205.038 196.772 205.476 197.596Z" fill="#D3766A"/>
<path d="M221.239 149C218.087 151.307 213.212 151.334 211.169 151.06V153.942C215.372 153.942 219.633 150.648 221.239 149ZM224.742 142.823C225.092 144.141 227.515 148.04 228.683 149.824C232.186 148.589 233.063 130.88 230.873 125.527C229.122 121.243 222.553 120.172 219.925 120.584C218.174 119.349 215.987 116.878 202.851 118.937C189.714 120.996 189.714 134.998 198.471 135.41C207.229 135.822 210.73 131.703 212.044 132.115C213.357 132.528 214.233 133.351 217.298 137.058C220.364 140.764 219.488 140.764 219.925 137.058C220.364 133.351 222.115 133.351 225.18 135.41C228.246 137.469 224.305 141.176 224.742 142.823Z" fill="#032068"/>
<path d="M162.437 167.578L168.519 192.749C168.579 193 168.785 193.197 169.051 193.259L179.384 195.683C179.906 195.805 180.383 195.37 180.268 194.875L174.829 171.529C174.778 171.311 174.617 171.13 174.397 171.045L163.419 166.797C162.876 166.587 162.306 167.04 162.437 167.578Z" fill="white"/>
<path fill-rule="evenodd" clip-rule="evenodd" d="M163.695 166.167C162.609 165.746 161.47 166.653 161.73 167.73L167.813 192.9C167.933 193.401 168.345 193.796 168.875 193.921L179.209 196.344C180.252 196.589 181.206 195.717 180.976 194.729L175.537 171.384C175.435 170.947 175.112 170.585 174.673 170.414L163.695 166.167ZM163.143 167.427L174.122 171.675L179.559 195.022L169.226 192.598L163.143 167.427Z" fill="#032068"/>
<path d="M177.192 196.903V200.464C172.875 202.483 164.393 205.45 165.002 201.177C165.765 195.835 163.478 195.122 162.336 189.069C161.421 184.226 163.732 182.303 165.002 181.946C165.256 182.896 165.84 185.009 166.145 185.863C166.526 186.932 170.335 185.152 173.383 184.796C176.43 184.439 178.335 189.781 178.716 192.629C179.097 195.479 177.192 195.835 177.192 196.903Z" fill="#D3766A"/>
<path d="M189.275 236.308C189.275 241.579 185.48 244.956 183.583 246.191L184.021 248.662C186.064 249.074 190.622 244.132 191.026 239.19C191.724 230.666 184.095 209.202 180.138 199.387C180.118 199.337 180.099 199.289 180.08 199.243C180.099 199.291 180.119 199.339 180.138 199.387C182.39 205.033 189.275 229.775 189.275 236.308Z" fill="#032068"/>
<path d="M170.344 200.478C163.338 200.478 164.316 199.243 162.565 196.36C162.565 206.382 158.624 227.659 160.376 235.896C162.564 246.191 170.344 249.897 175.16 249.074C179.976 248.25 187.86 246.191 189.173 237.131C190.224 229.883 182.897 206.931 179.102 196.36C178.664 197.321 176.392 200.478 170.344 200.478Z" fill="#6D61F2"/>
<path d="M162.024 241.249C172.884 235.649 184.063 238.641 188.296 240.837C187.129 243.583 182.867 249.156 175.16 249.485C167.454 249.815 163.192 244.132 162.024 241.249Z" fill="#032068"/>
</svg>
