<svg width="26" height="26" viewBox="0 0 26 26" fill="none" xmlns="http://www.w3.org/2000/svg">
<rect width="26" height="26" rx="10" fill="white"/>
<g clip-path="url(#clip0_378_1049)">
<path d="M10.75 8.00001H12V13H10.75V8.00001ZM7 10.5H2V5.50001H3.25V8.17579C3.6862 7.37501 4.2168 6.65561 4.8418 6.01758C5.4668 5.37956 6.1569 4.8392 6.91211 4.39649C7.66732 3.95378 8.47786 3.60873 9.34375 3.36133C10.2096 3.11394 11.0951 2.9935 12 3.00001C12.918 3.00001 13.8034 3.11719 14.6562 3.35157C15.5091 3.58594 16.3066 3.92123 17.0488 4.35743C17.791 4.79363 18.4648 5.31446 19.0703 5.91993C19.6758 6.5254 20.1966 7.20248 20.6328 7.95118C21.069 8.69988 21.4043 9.4974 21.6387 10.3438C21.873 11.1901 21.9935 12.0755 22 13H20.75C20.75 12.1992 20.6458 11.4277 20.4375 10.6856C20.2292 9.94337 19.9362 9.24675 19.5586 8.59571C19.181 7.94467 18.722 7.35222 18.1816 6.81837C17.6413 6.28451 17.0521 5.82878 16.4141 5.45118C15.776 5.07357 15.0794 4.77735 14.3242 4.56251C13.569 4.34766 12.7943 4.2435 12 4.25001C11.1602 4.25001 10.3431 4.36719 9.54883 4.60157C8.75456 4.83594 8.01562 5.17123 7.33203 5.60743C6.64844 6.04363 6.02669 6.56771 5.4668 7.17969C4.9069 7.79167 4.45117 8.48178 4.09961 9.25001H7V10.5ZM12 14.25H22V15.5H12V14.25ZM12 18H22V19.25H12V18ZM12 21.75H22V23H12V21.75ZM3.57227 15.334C3.80664 16.1738 4.14844 16.9518 4.59766 17.668C5.04688 18.3841 5.58724 19.0156 6.21875 19.5625C6.85026 20.1094 7.54688 20.5651 8.30859 20.9297C9.07031 21.2943 9.88411 21.5352 10.75 21.6524V22.9219C9.7474 22.7852 8.79688 22.515 7.89844 22.1113C7 21.7077 6.1862 21.1934 5.45703 20.5684C4.72786 19.9434 4.09961 19.2142 3.57227 18.3809C3.04492 17.5475 2.64453 16.6426 2.37109 15.666L3.57227 15.334Z" fill="#6D61F2"/>
</g>
<defs>
<clipPath id="clip0_378_1049">
<rect width="20" height="20" fill="white" transform="translate(2 3)"/>
</clipPath>
</defs>
</svg>
