<svg width="26" height="26" viewBox="0 0 26 26" fill="none" xmlns="http://www.w3.org/2000/svg">
<rect width="26" height="26" rx="10" fill="white"/>
<g clip-path="url(#clip0_378_1040)">
<g clip-path="url(#clip1_378_1040)">
<path d="M13.0555 9.11108C10.8889 9.11108 9.16666 10.8333 9.16666 13C9.16666 15.1666 10.8889 16.8889 13.0555 16.8889C15.2222 16.8889 16.9444 15.1666 16.9444 13C16.9444 10.8333 15.2222 9.11108 13.0555 9.11108ZM13.0555 15.7778C11.5 15.7778 10.2778 14.5555 10.2778 13C10.2778 11.4444 11.5 10.2222 13.0555 10.2222C14.6111 10.2222 15.8333 11.4444 15.8333 13C15.8333 14.5555 14.6111 15.7778 13.0555 15.7778Z" fill="#6D61F2"/>
<path d="M21.2222 11.1666L19.6667 10.6666L19.3333 9.83331L20.1111 8.38886C20.2778 8.05553 20.2222 7.61108 19.9444 7.33331L18.6111 5.99997C18.3333 5.7222 17.8889 5.66664 17.5556 5.83331L16.1111 6.61108L15.2778 6.27775L14.7778 4.7222C14.6667 4.38886 14.3333 4.11108 13.9444 4.11108H12.0556C11.6667 4.11108 11.3333 4.38886 11.2778 4.77775L10.7778 6.33331C10.4444 6.38886 10.1667 6.49997 9.88889 6.66664L8.44445 5.88886C8.11111 5.7222 7.66667 5.77775 7.38889 6.05553L6.05556 7.38886C5.77778 7.66664 5.72223 8.11108 5.88889 8.44442L6.61111 9.83331C6.5 10.1111 6.38889 10.4444 6.27778 10.7222L4.72223 11.2222C4.38889 11.3333 4.11111 11.6666 4.11111 12.0555V13.9444C4.11111 14.3333 4.38889 14.6666 4.77778 14.7778L6.33334 15.2778L6.66667 16.1111L5.88889 17.5555C5.72223 17.8889 5.77778 18.3333 6.05556 18.6111L7.38889 19.9444C7.66667 20.2222 8.11111 20.2778 8.44445 20.1111L9.88889 19.3333L10.7222 19.6666L11.2222 21.2778C11.3333 21.6111 11.6667 21.8889 12.0556 21.8889H13.9444C14.3333 21.8889 14.6667 21.6111 14.7778 21.2778L15.2778 19.6666L16.1111 19.3333L17.5556 20.1111C17.8889 20.2778 18.3333 20.2222 18.6111 19.9444L19.9444 18.6111C20.2222 18.3333 20.2778 17.8889 20.1111 17.5555L19.3333 16.1111L19.6667 15.2778L21.2778 14.7778C21.6111 14.6666 21.8889 14.3333 21.8889 13.9444V12.0555C21.8889 11.6666 21.6111 11.2778 21.2222 11.1666ZM20.7778 13.7778L18.7778 14.3889L18.7222 14.6666L18.2222 15.8333L18.0556 16.1111L19.0556 17.9444L17.9444 19.0555L16.1111 18.0555L15.8333 18.2222C15.4444 18.4444 15.0556 18.6111 14.6667 18.7222L14.3889 18.7778L13.7778 20.7778H12.2222L11.6111 18.7778L11.3333 18.7222L10.1667 18.2222L9.88889 18.0555L8.05556 19.0555L6.94445 17.9444L7.94445 16.1111L7.77778 15.8333C7.55556 15.4444 7.38889 15.0555 7.27778 14.6666L7.22223 14.3889L5.22223 13.7778V12.2222L7.11111 11.6666L7.22223 11.3889C7.33334 10.9444 7.5 10.5555 7.72223 10.1666L7.88889 9.88886L6.94445 8.05553L8.05556 6.94442L9.83334 7.94442L10.1111 7.77775C10.5 7.55553 10.8889 7.38886 11.3333 7.27775L11.6111 7.16664L12.2222 5.2222H13.7778L14.3889 7.16664L14.6667 7.27775C15.0556 7.38886 15.4444 7.55553 15.8333 7.77775L16.1111 7.94442L17.9444 6.94442L19.0556 8.05553L18.0556 9.88886L18.2222 10.1666C18.4444 10.5555 18.6111 10.9444 18.7222 11.3333L18.7778 11.6111L20.7778 12.2222V13.7778Z" fill="#6D61F2"/>
</g>
</g>
<defs>
<clipPath id="clip0_378_1040">
<rect width="20" height="20" fill="white" transform="translate(2 3)"/>
</clipPath>
<clipPath id="clip1_378_1040">
<rect width="20" height="20" fill="white" transform="translate(3 3)"/>
</clipPath>
</defs>
</svg>
