<svg width="28" height="28" viewBox="0 0 28 28" fill="none" xmlns="http://www.w3.org/2000/svg">
<path d="M14 9C11.2375 9 9 11.2375 9 14C9 16.7625 11.2375 19 14 19C16.7625 19 19 16.7625 19 14C19 11.2375 16.7625 9 14 9ZM25.175 12.75C24.8919 10.2152 23.7552 7.85192 21.9516 6.04837C20.1481 4.24481 17.7848 3.10814 15.25 2.825V0.25H12.75V2.825C10.2152 3.10814 7.85192 4.24481 6.04837 6.04837C4.24481 7.85192 3.10814 10.2152 2.825 12.75H0.25V15.25H2.825C3.10814 17.7848 4.24481 20.1481 6.04837 21.9516C7.85192 23.7552 10.2152 24.8919 12.75 25.175V27.75H15.25V25.175C17.7848 24.8919 20.1481 23.7552 21.9516 21.9516C23.7552 20.1481 24.8919 17.7848 25.175 15.25H27.75V12.75H25.175ZM14 22.75C9.1625 22.75 5.25 18.8375 5.25 14C5.25 9.1625 9.1625 5.25 14 5.25C18.8375 5.25 22.75 9.1625 22.75 14C22.75 18.8375 18.8375 22.75 14 22.75Z" fill="#6D61F2"/>
</svg>
