<svg width="21" height="26" viewBox="0 0 21 26" fill="none" xmlns="http://www.w3.org/2000/svg">
<g filter="url(#filter0_d_456_3039)">
<path fill-rule="evenodd" clip-rule="evenodd" d="M10.5236 0.635687C14.0452 0.635687 16.9 3.4905 16.9 7.01208C16.9 8.40177 16.446 9.75342 15.6071 10.8613L10.4627 17.6552C10.4563 17.6636 10.4437 17.6636 10.4373 17.6552L5.29292 10.8613C4.454 9.75342 4 8.40177 4 7.01208C4 3.4905 6.85481 0.635687 10.3764 0.635687L10.5236 0.635687ZM11.6664 4.26674C10.8935 3.91562 10.0065 3.91562 9.23361 4.26674L9.1097 4.32303C8.36421 4.66169 7.81608 5.32461 7.62352 6.12045C7.42386 6.94561 7.62981 7.8165 8.1779 8.46483L8.21727 8.5114C8.74583 9.13663 9.52298 9.49728 10.3417 9.49728H10.5583C11.377 9.49728 12.1542 9.13663 12.6827 8.5114L12.7221 8.46483C13.2702 7.8165 13.4761 6.94561 13.2765 6.12045C13.0839 5.32461 12.5358 4.66169 11.7903 4.32303L11.6664 4.26674Z" fill="#00AE00"/>
</g>
<defs>
<filter id="filter0_d_456_3039" x="0" y="0.635742" width="20.9" height="25.0258" filterUnits="userSpaceOnUse" color-interpolation-filters="sRGB">
<feFlood flood-opacity="0" result="BackgroundImageFix"/>
<feColorMatrix in="SourceAlpha" type="matrix" values="0 0 0 0 0 0 0 0 0 0 0 0 0 0 0 0 0 0 127 0" result="hardAlpha"/>
<feOffset dy="4"/>
<feGaussianBlur stdDeviation="2"/>
<feComposite in2="hardAlpha" operator="out"/>
<feColorMatrix type="matrix" values="0 0 0 0 0 0 0 0 0 0 0 0 0 0 0 0 0 0 0.25 0"/>
<feBlend mode="normal" in2="BackgroundImageFix" result="effect1_dropShadow_456_3039"/>
<feBlend mode="normal" in="SourceGraphic" in2="effect1_dropShadow_456_3039" result="shape"/>
</filter>
</defs>
</svg>
