<svg width="42" height="42" viewBox="0 0 42 42" fill="none" xmlns="http://www.w3.org/2000/svg">
<path d="M41.2028 40.1406C37.8472 34.1162 32.4685 30.003 26.2366 28.5201C29.1979 27.2602 31.646 24.9716 33.1627 22.0453C34.6794 19.119 35.1706 15.7365 34.5523 12.4759C33.934 9.21527 32.2447 6.27873 29.7729 4.16801C27.3011 2.05729 24.2002 0.903351 21 0.903351C17.7999 0.903351 14.699 2.05729 12.2272 4.16801C9.75537 6.27873 8.06602 9.21527 7.44775 12.4759C6.82948 15.7365 7.32066 19.119 8.83737 22.0453C10.3541 24.9716 12.8022 27.2602 15.7635 28.5201C9.53971 29.9966 4.15283 34.1162 0.797209 40.1406C0.700072 40.3335 0.678438 40.5578 0.736826 40.7668C0.795214 40.9758 0.929109 41.1533 1.11054 41.2622C1.29197 41.3711 1.50691 41.403 1.71045 41.3512C1.914 41.2995 2.09041 41.168 2.20283 40.9844C6.1719 33.8526 13.2041 29.5937 21 29.5937C28.796 29.5937 35.8281 33.8526 39.7972 40.9844C39.8684 41.1125 39.9709 41.2189 40.0942 41.293C40.2176 41.367 40.3575 41.4061 40.5 41.4062C40.6428 41.4067 40.7831 41.3674 40.9063 41.2923C41.0925 41.1803 41.2284 40.9961 41.284 40.7802C41.3396 40.5643 41.3104 40.3342 41.2028 40.1406ZM8.81252 15.25C8.81252 12.7468 9.5273 10.2999 10.8665 8.21855C12.2057 6.13724 14.1091 4.51506 16.3361 3.55714C18.563 2.59922 21.0135 2.34858 23.3777 2.83693C25.7418 3.32527 27.9134 4.53066 29.6179 6.30067C31.3223 8.07068 32.4831 10.3258 32.9533 12.7809C33.4236 15.236 33.1822 17.7807 32.2598 20.0933C31.3374 22.406 29.7753 24.3826 27.771 25.7733C25.7668 27.164 23.4105 27.9062 21 27.9062C17.7689 27.9023 14.6711 26.5677 12.3863 24.195C10.1015 21.8223 8.81628 18.6054 8.81252 15.25Z" fill="#6E80B0"/>
</svg>
